<svg xmlns="http://www.w3.org/2000/svg" width="80" height="80" viewBox="0 0 80 80">
  <path id="github" d="M40,0C17.91,0,0,18.363,0,41.011A40.933,40.933,0,0,0,27.356,79.925c2,.376,2.73-.891,2.73-1.972,0-.976-.037-4.21-.056-7.634C18.906,72.8,16.555,65.482,16.555,65.482c-1.821-4.736-4.441-6-4.441-6-3.635-2.543.276-2.493.276-2.493,4.016.285,6.13,4.225,6.13,4.225,3.569,6.268,9.365,4.456,11.641,3.4A8.852,8.852,0,0,1,32.7,59.144c-8.879-1.036-18.22-4.556-18.22-20.27a16.1,16.1,0,0,1,4.114-11.006,15.119,15.119,0,0,1,.4-10.859s3.355-1.1,11,4.205a36.966,36.966,0,0,1,20.024,0c7.632-5.312,10.991-4.205,10.991-4.205a15.056,15.056,0,0,1,.4,10.854,16.055,16.055,0,0,1,4.111,11.006c0,15.755-9.355,19.224-18.267,20.24,1.44,1.272,2.715,3.765,2.715,7.589,0,5.482-.054,9.9-.054,11.254,0,1.091.728,2.368,2.754,1.967A40.95,40.95,0,0,0,80,41.011C80,18.363,62.09,0,40,0Z" fill="#d6d5d5"/>
</svg>
