<svg xmlns="http://www.w3.org/2000/svg" width="69.364" height="65.867" viewBox="0 0 69.364 65.867">
  <g id="Group_11" data-name="Group 11" transform="translate(-127.818 -4810)">
    <path id="Octicons-mark-github" d="M34.682,0C15.52,0,0,15.111,0,33.767A33.84,33.84,0,0,0,23.714,65.8c1.734.3,2.384-.718,2.384-1.6,0-.8-.043-3.461-.043-6.289-8.714,1.562-10.968-2.068-11.662-3.968-.39-.971-2.081-3.968-3.555-4.77-1.214-.633-2.948-2.195-.043-2.237,2.731-.042,4.682,2.448,5.332,3.461,3.121,5.107,8.107,3.672,10.1,2.786a7.036,7.036,0,0,1,2.211-4.516c-7.717-.844-15.78-3.757-15.78-16.672a12.95,12.95,0,0,1,3.555-9.075,11.837,11.837,0,0,1,.347-8.948s2.9-.886,9.537,3.461a33.553,33.553,0,0,1,17.341,0c6.633-4.39,9.537-3.461,9.537-3.461a11.837,11.837,0,0,1,.347,8.948,12.875,12.875,0,0,1,3.555,9.075c0,12.958-8.107,15.828-15.824,16.672,1.257,1.055,2.341,3.081,2.341,6.247,0,4.516-.043,8.146-.043,9.286,0,.886.65,1.942,2.384,1.6A33.911,33.911,0,0,0,69.364,33.767C69.364,15.111,53.843,0,34.682,0Z" transform="translate(127.818 4810)" fill="#cecece" fill-rule="evenodd"/>
  </g>
</svg>
