<svg xmlns="http://www.w3.org/2000/svg" xmlns:xlink="http://www.w3.org/1999/xlink" width="82" height="72" viewBox="0 0 82 72">
  <defs>
    <clipPath id="clip-path">
      <ellipse id="Ellipse_5" data-name="Ellipse 5" cx="41" cy="36" rx="41" ry="36" transform="translate(125 4810)" fill="#fff" stroke="#707070" stroke-width="1"/>
    </clipPath>
  </defs>
  <g id="Mask_Group_6" data-name="Mask Group 6" transform="translate(-125 -4810)" clip-path="url(#clip-path)">
    <path id="Octicons-mark-github" d="M37.815,0C16.922,0,0,16.484,0,36.836A36.914,36.914,0,0,0,25.856,71.785c1.891.322,2.6-.783,2.6-1.75,0-.875-.047-3.776-.047-6.861-9.5,1.7-11.959-2.256-12.715-4.328-.425-1.059-2.269-4.328-3.876-5.2-1.324-.691-3.214-2.394-.047-2.44,2.978-.046,5.1,2.671,5.814,3.776,3.4,5.571,8.839,4.006,11.014,3.039a7.677,7.677,0,0,1,2.411-4.927C22.594,52.169,13.8,48.992,13.8,34.9A14.131,14.131,0,0,1,17.678,25a12.919,12.919,0,0,1,.378-9.762s3.167-.967,10.4,3.776a36.565,36.565,0,0,1,18.907,0c7.232-4.789,10.4-3.776,10.4-3.776A12.92,12.92,0,0,1,58.14,25a14.049,14.049,0,0,1,3.876,9.9c0,14.136-8.839,17.267-17.253,18.188,1.371,1.151,2.552,3.361,2.552,6.815,0,4.927-.047,8.887-.047,10.13,0,.967.709,2.118,2.6,1.75A36.992,36.992,0,0,0,75.629,36.836C75.629,16.484,58.707,0,37.815,0Z" transform="translate(128.073 4810)" fill="#1b1f23" fill-rule="evenodd"/>
  </g>
</svg>
