<svg id="_61109" data-name="61109" xmlns="http://www.w3.org/2000/svg" width="59" height="59" viewBox="0 0 59 59">
  <g id="post-linkedin" transform="translate(0 0)">
    <path id="Path_72" data-name="Path 72" d="M53.1,0H5.9A5.917,5.917,0,0,0,0,5.9V53.1A5.917,5.917,0,0,0,5.9,59H53.1A5.917,5.917,0,0,0,59,53.1V5.9A5.917,5.917,0,0,0,53.1,0ZM17.7,50.15H8.85V23.6H17.7ZM13.275,18.585a5.31,5.31,0,1,1,5.31-5.31A5.288,5.288,0,0,1,13.275,18.585ZM50.15,50.15H41.3V34.515a4.425,4.425,0,1,0-8.85,0V50.15H23.6V23.6h8.85v3.54a9.529,9.529,0,0,1,7.375-4.13A10.452,10.452,0,0,1,50.15,33.335Z" transform="translate(0 0)" fill="#d6d5d5"/>
  </g>
</svg>
