<svg xmlns="http://www.w3.org/2000/svg" width="80" height="80" viewBox="0 0 80 80">
  <path id="linkedin" d="M66.449,62.849V47.233c0-8.367-4.467-12.26-10.421-12.26a8.985,8.985,0,0,0-8.159,4.5V35.613H38.816c.12,2.556,0,27.236,0,27.236h9.053V47.639a6.174,6.174,0,0,1,.3-2.207,4.952,4.952,0,0,1,4.643-3.311c3.277,0,4.587,2.5,4.587,6.157V62.851h9.052ZM29.279,31.9c3.156,0,5.123-2.093,5.123-4.708a4.705,4.705,0,0,0-5.063-4.7c-3.1,0-5.121,2.032-5.121,4.7a4.689,4.689,0,0,0,5,4.708ZM44,84A40,40,0,1,1,84,44,40,40,0,0,1,44,84ZM33.805,62.849V35.613H24.753V62.849Z" transform="translate(-4 -4)" fill="#d6d5d5" fill-rule="evenodd"/>
</svg>
