<svg xmlns="http://www.w3.org/2000/svg" width="288.182" height="289.673" viewBox="0 0 288.182 289.673">
  <g id="logoFM75" transform="translate(-231.39 -230)">
    <path id="Path_106" data-name="Path 106" d="M318.694,330.155l6.652-17.1H267.5V260.725h74.307l11.764-30.255H231.39V409.316H267.5V343.309H323.86Z" transform="translate(0 -0.218)" fill="#fff"/>
    <path id="Path_107" data-name="Path 107" d="M683.249,230l34.981,99.937-34.981,79.118H659.93l34.831-79.531L659.93,230Z" transform="translate(-198.657)" fill="#025159"/>
    <path id="Path_108" data-name="Path 108" d="M509.34,230l40.806,35.812L590.121,230l11.4,29.305-52.206,35.657Z" transform="translate(-128.849)" fill="#093c41"/>
    <g id="name_4_" transform="translate(231.803 429.118)">
      <g id="Group_13" data-name="Group 13" transform="translate(0)">
        <path id="Path_109" data-name="Path 109" d="M234.826,607.751v15.76h14.28v2.425h-14.28v18H232.16V605.3h18.051v2.451Z" transform="translate(-232.16 -603.095)" fill="#fff"/>
        <path id="Path_110" data-name="Path 110" d="M291.984,628.022a4.843,4.843,0,0,0-2.907-.891q-3.259,0-5.472,3.369t-2.21,9.565v12.96H278.97V625.437h2.425v6.115h.107a10.052,10.052,0,0,1,2.988-4.9,7.059,7.059,0,0,1,4.742-1.749,7.354,7.354,0,0,1,2.747.483v2.639Z" transform="translate(-253.86 -612.181)" fill="#fff"/>
        <path id="Path_111" data-name="Path 111" d="M328.061,652.9v-5.525h-.107a10.788,10.788,0,0,1-3.841,4.511,9.846,9.846,0,0,1-5.59,1.684,8.568,8.568,0,0,1-6.223-2.21,7.41,7.41,0,0,1-2.291-5.579q0-7.218,9.565-8.728l8.486-1.266q0-8.891-6.684-8.894a13.606,13.606,0,0,0-8.862,3.664V627.57a13.5,13.5,0,0,1,4.163-2.076,15.911,15.911,0,0,1,4.946-.864,8.328,8.328,0,0,1,6.587,2.639q2.333,2.639,2.328,7.676v17.944h-2.478Zm-7.6-13.743q-4.337.62-6.089,2.006c-1.169.923-1.749,2.43-1.749,4.511a5.384,5.384,0,0,0,1.631,4.039A6.222,6.222,0,0,0,318.8,651.3a8.522,8.522,0,0,0,6.63-2.95,10.974,10.974,0,0,0,2.639-7.612v-2.693Z" transform="translate(-268.249 -612.056)" fill="#fff"/>
        <path id="Path_112" data-name="Path 112" d="M382.508,652.909V636.854q0-9.945-7.167-9.94a8.308,8.308,0,0,0-6.544,2.924,10.592,10.592,0,0,0-2.559,7.237v15.841H363.76V625.326h2.478v5.01h.107a9.989,9.989,0,0,1,9.43-5.686,8.237,8.237,0,0,1,6.845,2.977q2.374,2.977,2.371,8.5v16.785h-2.484Z" transform="translate(-293.166 -612.065)" fill="#fff"/>
        <path id="Path_113" data-name="Path 113" d="M434.587,642.034l-13.2-13.631h-.107v13.631H418.8V601.19h2.478v26.323h.107l12.526-13.067h3.208l-13.094,13.362,14.146,14.226Z" transform="translate(-318.68 -601.19)" fill="#fff"/>
        <path id="Path_114" data-name="Path 114" d="M527.124,643.939V616.511q0-1,.3-5.686h-.107q-.837,2.181-1.4,3.369l-13.738,29.745h-.864l-13.792-29.584a21.973,21.973,0,0,1-1.266-3.637h-.134c.123,1.727.188,3.438.188,5.144v28.077H493.64V605.3h2.478l14.414,31.118a6.5,6.5,0,0,1,.3.729c.107.306.225.612.349.917.177.467.37.987.563,1.561h.161l.3-.864q.024-.1.917-2.559l14.2-30.9h2.371v38.634h-2.559Z" transform="translate(-353.374 -603.095)" fill="#025159"/>
        <path id="Path_115" data-name="Path 115" d="M578.8,609.4a2.07,2.07,0,0,1-2.044-2.1,1.826,1.826,0,0,1,.633-1.443,2.085,2.085,0,0,1,1.411-.553,2.227,2.227,0,0,1,1.47.536,1.8,1.8,0,0,1,.633,1.454,2.125,2.125,0,0,1-2.1,2.108Zm-1.212,34.541V616.351h2.478v27.589Z" transform="translate(-391.906 -603.095)" fill="#fff"/>
        <path id="Path_116" data-name="Path 116" d="M619.754,650.855q0,7.789-3.4,11.394t-10.562,3.61a18.377,18.377,0,0,1-8.218-2.1v-2.586a17.113,17.113,0,0,0,8.272,2.425q11.426,0,11.426-12.07v-3.583h-.107a10.732,10.732,0,0,1-9.94,5.633,10.5,10.5,0,0,1-8.309-3.691q-3.219-3.693-3.219-10.294a16.286,16.286,0,0,1,3.476-10.777,11.331,11.331,0,0,1,9.162-4.173q6.091,0,8.835,5.037h.107v-4.367h2.478v25.545ZM617.275,635.9a9.015,9.015,0,0,0-2.462-6.33,8.334,8.334,0,0,0-6.426-2.666,8.973,8.973,0,0,0-7.328,3.422,13.931,13.931,0,0,0-2.773,9.055q0,5.657,2.543,8.8a8.225,8.225,0,0,0,6.722,3.138,9.147,9.147,0,0,0,7.086-2.881,10.069,10.069,0,0,0,2.639-7.059Z" transform="translate(-400.685 -612.061)" fill="#fff"/>
        <path id="Path_117" data-name="Path 117" d="M674.735,653.493v-5.01h-.107q-2.881,5.681-8.889,5.686-9.776,0-9.779-12.311V625.91h2.505v15.331q0,5.6,1.845,8.138t5.8,2.532a7.772,7.772,0,0,0,6.239-2.827,11.33,11.33,0,0,0,2.387-7.542V625.915h2.478V653.5h-2.484Z" transform="translate(-428.62 -612.649)" fill="#fff"/>
        <path id="Path_118" data-name="Path 118" d="M710.926,639.21q0,5.681,2.629,8.889a8.8,8.8,0,0,0,7.2,3.208,14.644,14.644,0,0,0,9.055-3.422v2.639a16.135,16.135,0,0,1-9.565,3.042,10.818,10.818,0,0,1-8.62-3.825q-3.291-3.83-3.288-10.8a15.384,15.384,0,0,1,3.433-10.171,11.065,11.065,0,0,1,8.932-4.136,9.314,9.314,0,0,1,7.891,3.61q2.744,3.613,2.746,9.86v1.1H710.926Zm17.836-2.264a12.176,12.176,0,0,0-2.291-7.408A7.138,7.138,0,0,0,720.6,626.9a8.619,8.619,0,0,0-6.426,2.6,12.469,12.469,0,0,0-3.138,7.451h17.729Z" transform="translate(-452.902 -612.056)" fill="#fff"/>
        <path id="Path_119" data-name="Path 119" d="M763.99,642.034V601.19h2.478v40.844Z" transform="translate(-478.699 -601.19)" fill="#fff"/>
      </g>
      <g id="Group_14" data-name="Group 14" transform="translate(47.614 68.325)">
        <path id="Path_120" data-name="Path 120" d="M322.406,742.1v8.62H320.92V729.23h5.187a7.5,7.5,0,0,1,5.069,1.534,5.65,5.65,0,0,1,1.754,4.49,6.612,6.612,0,0,1-1.958,4.924A7.462,7.462,0,0,1,325.5,742.1Zm0-11.512v10.149h3.058a6.313,6.313,0,0,0,4.42-1.389,5.049,5.049,0,0,0,1.513-3.921q0-4.844-5.563-4.844h-3.428Z" transform="translate(-320.92 -728.871)" fill="#025159"/>
        <path id="Path_121" data-name="Path 121" d="M363.048,750.725l-2.865-6.3a6.867,6.867,0,0,0-1.77-2.618,3.581,3.581,0,0,0-2.221-.665h-2.666v9.581H352.04V729.23h5.965a6.272,6.272,0,0,1,4.474,1.534,5.322,5.322,0,0,1,1.625,4.055,5.762,5.762,0,0,1-1.336,3.884,6.271,6.271,0,0,1-3.734,2.012v.059q1.271.507,2.489,3.106l3.192,6.85h-1.668Zm-9.516-20.132V739.8h3.7a5.658,5.658,0,0,0,3.905-1.287,4.494,4.494,0,0,0,1.448-3.54,4.079,4.079,0,0,0-1.3-3.213,5.415,5.415,0,0,0-3.734-1.164Z" transform="translate(-335.346 -728.871)" fill="#025159"/>
        <path id="Path_122" data-name="Path 122" d="M391.7,750.794a9.261,9.261,0,0,1-7.263-3.026,11.365,11.365,0,0,1-2.7-7.869,11.862,11.862,0,0,1,2.779-8.234,9.683,9.683,0,0,1,7.591-3.1,9.038,9.038,0,0,1,7.038,2.977,11.2,11.2,0,0,1,2.693,7.8q0,5.335-2.757,8.4A9.453,9.453,0,0,1,391.7,750.794Zm.15-20.883a7.888,7.888,0,0,0-6.169,2.714,10.271,10.271,0,0,0-2.419,7.108,10.391,10.391,0,0,0,2.3,7.07,7.705,7.705,0,0,0,6.115,2.629,8.044,8.044,0,0,0,6.314-2.6q2.325-2.6,2.323-7.247a10.344,10.344,0,0,0-2.269-7.113A7.862,7.862,0,0,0,391.847,729.911Z" transform="translate(-349.11 -728.565)" fill="#025159"/>
        <path id="Path_123" data-name="Path 123" d="M441.962,748.918a13.787,13.787,0,0,1-6.85,1.872A9.157,9.157,0,0,1,428,747.807a11.165,11.165,0,0,1-2.714-7.827,11.786,11.786,0,0,1,2.924-8.154,9.965,9.965,0,0,1,7.81-3.267,13.951,13.951,0,0,1,5.5,1.137v1.62a13.105,13.105,0,0,0-5.713-1.411,8.3,8.3,0,0,0-6.528,2.773,11.692,11.692,0,0,0-.15,14.173,7.979,7.979,0,0,0,6.244,2.569,10.016,10.016,0,0,0,5.1-1.261V741.07h-5.069v-1.346h6.55v9.194Z" transform="translate(-369.303 -728.56)" fill="#025159"/>
        <path id="Path_124" data-name="Path 124" d="M476.618,750.725l-2.865-6.3a6.867,6.867,0,0,0-1.77-2.618,3.581,3.581,0,0,0-2.221-.665H467.1v9.581H465.61V729.23h5.965a6.272,6.272,0,0,1,4.474,1.534,5.322,5.322,0,0,1,1.625,4.055,5.762,5.762,0,0,1-1.336,3.884,6.271,6.271,0,0,1-3.734,2.012v.059q1.271.507,2.489,3.106l3.192,6.85h-1.668ZM467.1,730.593V739.8h3.7a5.658,5.658,0,0,0,3.905-1.287,4.494,4.494,0,0,0,1.448-3.54,4.079,4.079,0,0,0-1.3-3.213,5.416,5.416,0,0,0-3.734-1.164Z" transform="translate(-387.994 -728.871)" fill="#025159"/>
        <path id="Path_125" data-name="Path 125" d="M509.783,750.725l-2.457-6.689H498l-2.457,6.689H493.91l8.111-21.495h1.411l8.02,21.495Zm-6.6-17.987a8.7,8.7,0,0,1-.268-.885c-.07-.252-.145-.5-.225-.751h-.059a14.521,14.521,0,0,1-.494,1.6l-3.616,9.967h8.288Z" transform="translate(-401.113 -728.871)" fill="#025159"/>
        <path id="Path_126" data-name="Path 126" d="M552.03,750.725V735.463c0-.37.054-1.422.166-3.165h-.059c-.311.81-.569,1.432-.778,1.872l-7.644,16.549h-.477l-7.676-16.458a12.742,12.742,0,0,1-.708-2.022h-.075c.07.96.107,1.915.107,2.865v15.621H533.4V729.23h1.379l8.02,17.316a3.734,3.734,0,0,1,.166.4c.059.172.123.338.193.51.1.257.2.547.316.869h.091l.166-.483c.011-.038.177-.515.51-1.422l7.9-17.193h1.32v21.495Z" transform="translate(-419.419 -728.87)" fill="#025159"/>
        <path id="Path_127" data-name="Path 127" d="M599.7,750.725V735.463c0-.37.054-1.422.166-3.165h-.059c-.311.81-.569,1.432-.778,1.872l-7.644,16.549h-.477l-7.676-16.458a12.751,12.751,0,0,1-.708-2.022h-.075c.07.96.107,1.915.107,2.865v15.621H581.07V729.23h1.379l8.02,17.316a3.716,3.716,0,0,1,.166.4c.059.172.123.338.193.51.1.257.2.547.317.869h.091l.166-.483c.011-.038.177-.515.51-1.422l7.9-17.193h1.32v21.495Z" transform="translate(-441.517 -728.871)" fill="#025159"/>
        <path id="Path_128" data-name="Path 128" d="M628.74,750.725V729.23h10.042v1.363h-8.556v8.62h7.945v1.346h-7.945v8.814h9.055v1.352Z" transform="translate(-463.615 -728.871)" fill="#025159"/>
        <path id="Path_129" data-name="Path 129" d="M668.362,750.725l-2.865-6.3a6.866,6.866,0,0,0-1.77-2.618,3.576,3.576,0,0,0-2.215-.665h-2.666v9.581H657.36V729.23h5.965a6.272,6.272,0,0,1,4.474,1.534,5.322,5.322,0,0,1,1.625,4.055,5.762,5.762,0,0,1-1.336,3.884,6.271,6.271,0,0,1-3.734,2.012v.059q1.271.507,2.489,3.106l3.2,6.845Zm-9.522-20.132V739.8h3.7a5.658,5.658,0,0,0,3.905-1.287,4.494,4.494,0,0,0,1.448-3.54,4.079,4.079,0,0,0-1.3-3.213,5.415,5.415,0,0,0-3.734-1.164Z" transform="translate(-476.883 -728.871)" fill="#025159"/>
      </g>
    </g>
  </g>
</svg>
