<?xml version="1.0" encoding="utf-8"?>
<!-- Generator: Adobe Illustrator 23.0.0, SVG Export Plug-In . SVG Version: 6.00 Build 0)  -->
<svg version="1.1" id="Layer_1" xmlns="http://www.w3.org/2000/svg" xmlns:xlink="http://www.w3.org/1999/xlink" x="0px" y="0px"
	 viewBox="0 0 1000 1000" style="enable-background:new 0 0 1000 1000;" xml:space="preserve">
<style type="text/css">
	.st0{fill:#1C1C1C;}
	.st1{fill:#226699;}
	.st2{fill:#1D5782;}
	.st3{display:none;}
	.st4{display:inline;}
</style>
<g>
	<polygon class="st0" points="394.14,519.3 406.54,487.42 298.71,487.42 298.71,389.87 437.23,389.87 459.16,333.47 231.39,333.47 
		231.39,666.87 298.71,666.87 298.71,543.82 403.77,543.82 	"/>
	<polygon class="st1" points="703.4,333 768.61,519.3 703.4,666.79 659.93,666.79 724.86,518.53 659.93,333 	"/>
	<polygon class="st2" points="509.34,333 585.41,399.76 659.93,333 681.18,387.63 583.86,454.1 	"/>
	<g id="name_4_" class="st3">
		<g class="st4">
			<path class="st0" d="M237.13,609.87v29.38h26.62v4.52h-26.62v33.55h-4.97V605.3h33.65v4.57H237.13z"/>
			<path class="st0" d="M303.23,630.72c-1.54-1.11-3.35-1.66-5.42-1.66c-4.05,0-7.45,2.09-10.2,6.28
				c-2.75,4.19-4.12,10.13-4.12,17.83v24.16h-4.52v-51.43h4.52v11.4h0.2c1.17-3.92,3.03-6.96,5.57-9.14
				c2.54-2.18,5.49-3.26,8.84-3.26c1.91,0,3.62,0.3,5.12,0.9V630.72z"/>
			<path class="st0" d="M343.66,677.33v-10.3h-0.2c-1.64,3.52-4.03,6.32-7.16,8.41c-3.13,2.09-6.6,3.14-10.42,3.14
				c-4.89,0-8.76-1.37-11.6-4.12c-2.85-2.74-4.27-6.21-4.27-10.4c0-8.97,5.94-14.4,17.83-16.27l15.82-2.36
				c0-11.05-4.15-16.58-12.46-16.58c-5.66,0-11.17,2.28-16.52,6.83v-5.57c1.91-1.51,4.5-2.8,7.76-3.87
				c3.26-1.07,6.34-1.61,9.22-1.61c5.29,0,9.38,1.64,12.28,4.92c2.9,3.28,4.34,8.05,4.34,14.31v33.45H343.66z M329.5,651.71
				c-5.39,0.77-9.17,2.02-11.35,3.74c-2.18,1.72-3.26,4.53-3.26,8.41c0,3.05,1.01,5.56,3.04,7.53c2.03,1.98,4.85,2.96,8.46,2.96
				c4.96,0,9.07-1.83,12.36-5.5c3.28-3.66,4.92-8.39,4.92-14.19v-5.02L329.5,651.71z"/>
			<path class="st0" d="M398.71,677.33v-29.93c0-12.36-4.45-18.53-13.36-18.53c-4.96,0-9.02,1.82-12.2,5.45
				c-3.18,3.63-4.77,8.13-4.77,13.49v29.53h-4.62v-51.43h4.62v9.34h0.2c3.75-7.06,9.61-10.6,17.58-10.6c5.56,0,9.81,1.85,12.76,5.55
				c2.95,3.7,4.42,8.98,4.42,15.85v31.29H398.71z"/>
			<path class="st0" d="M448.23,677.33l-24.61-25.41h-0.2v25.41h-4.62v-76.14h4.62v49.07h0.2l23.35-24.36h5.98l-24.41,24.91
				l26.37,26.52H448.23z"/>
			<path class="st1" d="M556.06,677.33V626.2c0-1.24,0.18-4.77,0.55-10.6h-0.2c-1.04,2.71-1.91,4.8-2.61,6.28l-25.61,55.45h-1.61
				l-25.71-55.15c-0.84-1.77-1.62-4.03-2.36-6.78h-0.25c0.23,3.22,0.35,6.41,0.35,9.59v52.34h-4.97V605.3h4.62l26.87,58.01
				c0.17,0.34,0.35,0.79,0.55,1.36c0.2,0.57,0.42,1.14,0.65,1.71c0.33,0.87,0.69,1.84,1.05,2.91h0.3l0.55-1.61
				c0.03-0.13,0.6-1.72,1.71-4.77l26.47-57.61h4.42v72.02H556.06z"/>
			<path class="st0" d="M580.57,612.94c-1,0-1.89-0.37-2.66-1.11c-0.77-0.73-1.15-1.67-1.15-2.81c0-1.1,0.39-2,1.18-2.69
				c0.79-0.69,1.66-1.03,2.63-1.03c1.04,0,1.95,0.34,2.74,1c0.79,0.67,1.18,1.57,1.18,2.71c0,1.07-0.39,1.99-1.15,2.76
				C582.56,612.55,581.64,612.94,580.57,612.94z M578.31,677.33v-51.43h4.62v51.43H578.31z"/>
			<path class="st0" d="M640.54,673.51c0,9.68-2.11,16.76-6.33,21.24c-4.22,4.49-10.78,6.73-19.69,6.73
				c-4.95,0-10.06-1.3-15.32-3.92v-4.82c5.42,3.01,10.56,4.52,15.42,4.52c14.2,0,21.3-7.5,21.3-22.5v-6.68h-0.2
				c-4.05,7-10.23,10.5-18.53,10.5c-6.33,0-11.5-2.29-15.49-6.88c-4-4.59-6-10.98-6-19.19c0-8.2,2.16-14.9,6.48-20.09
				c4.32-5.19,10.01-7.78,17.08-7.78c7.57,0,13.06,3.13,16.47,9.39h0.2v-8.14h4.62V673.51z M635.92,645.63
				c0-4.55-1.53-8.49-4.59-11.8c-3.06-3.32-7.06-4.97-11.98-4.97c-5.66,0-10.21,2.13-13.66,6.38c-3.45,4.25-5.17,9.88-5.17,16.88
				c0,7.03,1.58,12.5,4.74,16.4c3.16,3.9,7.34,5.85,12.53,5.85c5.52,0,9.93-1.79,13.21-5.37c3.28-3.58,4.92-7.97,4.92-13.16V645.63z
				"/>
			<path class="st0" d="M690.96,677.33v-9.34h-0.2c-3.58,7.06-9.11,10.6-16.57,10.6c-12.15,0-18.23-7.65-18.23-22.95v-29.73h4.67
				v28.58c0,6.96,1.15,12.02,3.44,15.17c2.29,3.15,5.9,4.72,10.82,4.72c4.79,0,8.67-1.76,11.63-5.27c2.96-3.52,4.45-8.2,4.45-14.06
				v-29.13h4.62v51.43H690.96z"/>
			<path class="st0" d="M713.16,651.81c0,7.06,1.63,12.59,4.9,16.57c3.26,3.99,7.74,5.98,13.43,5.98c5.76,0,11.39-2.12,16.88-6.38
				v4.92c-5.32,3.78-11.27,5.67-17.83,5.67c-6.63,0-11.99-2.38-16.07-7.13c-4.09-4.76-6.13-11.47-6.13-20.14
				c0-7.5,2.13-13.82,6.4-18.96c4.27-5.14,9.82-7.71,16.65-7.71c6.39,0,11.3,2.24,14.71,6.73c3.41,4.49,5.12,10.61,5.12,18.38v2.06
				H713.16z M746.41,647.59c-0.2-5.93-1.62-10.53-4.27-13.81c-2.65-3.28-6.3-4.92-10.95-4.92c-4.82,0-8.82,1.62-11.98,4.85
				c-3.16,3.23-5.12,7.86-5.85,13.89H746.41z"/>
			<path class="st0" d="M763.99,677.33v-76.14h4.62v76.14H763.99z"/>
		</g>
		<g class="st4">
			<path class="st1" d="M323.69,753.23v16.07h-2.77v-40.07h9.67c4.12,0,7.27,0.96,9.45,2.86c2.18,1.91,3.27,4.7,3.27,8.37
				c0,3.73-1.22,6.79-3.65,9.18c-2.43,2.4-5.84,3.59-10.21,3.59H323.69z M323.69,731.77v18.92h5.7c3.61,0,6.36-0.86,8.24-2.59
				c1.88-1.72,2.82-4.16,2.82-7.31c0-6.02-3.46-9.03-10.37-9.03H323.69z"/>
			<path class="st1" d="M372.56,769.3l-5.34-11.74c-1.1-2.42-2.2-4.05-3.3-4.88c-1.1-0.83-2.48-1.24-4.14-1.24h-4.97v17.86h-2.77
				v-40.07h11.12c3.54,0,6.32,0.96,8.34,2.86c2.02,1.91,3.03,4.43,3.03,7.56c0,2.89-0.83,5.3-2.49,7.24
				c-1.66,1.94-3.98,3.18-6.96,3.75v0.11c1.58,0.63,3.13,2.56,4.64,5.79l5.95,12.77H372.56z M354.82,731.77v17.16h6.9
				c3.06,0,5.48-0.8,7.28-2.4c1.8-1.6,2.7-3.8,2.7-6.6c0-2.55-0.81-4.55-2.43-5.99c-1.62-1.45-3.94-2.17-6.96-2.17H354.82z"/>
			<path class="st1" d="M400.31,770c-5.66,0-10.18-1.88-13.54-5.64c-3.36-3.76-5.04-8.65-5.04-14.67c0-6.39,1.73-11.51,5.18-15.35
				c3.46-3.85,8.17-5.77,14.15-5.77c5.4,0,9.78,1.85,13.12,5.55c3.34,3.7,5.02,8.55,5.02,14.54c0,6.63-1.71,11.85-5.14,15.65
				C410.64,768.1,406.05,770,400.31,770z M400.59,731.07c-4.66,0-8.49,1.68-11.5,5.06c-3.01,3.37-4.51,7.79-4.51,13.25
				c0,5.51,1.43,9.91,4.28,13.18c2.85,3.27,6.65,4.9,11.4,4.9c4.96,0,8.88-1.62,11.77-4.85c2.89-3.23,4.33-7.74,4.33-13.51
				c0-5.67-1.41-10.08-4.23-13.26C409.3,732.66,405.46,731.07,400.59,731.07z"/>
			<path class="st1" d="M456.37,766.51c-4.14,2.33-8.39,3.49-12.77,3.49c-5.46,0-9.87-1.85-13.25-5.56s-5.06-8.57-5.06-14.59
				c0-6.07,1.82-11.14,5.45-15.2c3.63-4.06,8.49-6.09,14.56-6.09c3.52,0,6.94,0.71,10.26,2.12v3.02c-3.63-1.75-7.18-2.63-10.65-2.63
				c-5.05,0-9.11,1.72-12.17,5.17c-3.06,3.45-4.6,7.84-4.6,13.19c0,5.63,1.44,10.04,4.32,13.23c2.88,3.2,6.76,4.79,11.64,4.79
				c3.61,0,6.78-0.78,9.5-2.35v-13.22h-9.45v-2.51h12.21V766.51z"/>
			<path class="st1" d="M486.13,769.3l-5.34-11.74c-1.1-2.42-2.2-4.05-3.3-4.88c-1.1-0.83-2.48-1.24-4.14-1.24h-4.97v17.86h-2.77
				v-40.07h11.12c3.54,0,6.32,0.96,8.34,2.86c2.02,1.91,3.03,4.43,3.03,7.56c0,2.89-0.83,5.3-2.49,7.24
				c-1.66,1.94-3.98,3.18-6.96,3.75v0.11c1.58,0.63,3.13,2.56,4.64,5.79l5.95,12.77H486.13z M468.39,731.77v17.16h6.9
				c3.06,0,5.48-0.8,7.28-2.4c1.8-1.6,2.7-3.8,2.7-6.6c0-2.55-0.81-4.55-2.43-5.99c-1.62-1.45-3.94-2.17-6.96-2.17H468.39z"/>
			<path class="st1" d="M523.5,769.3l-4.58-12.47h-17.38l-4.58,12.47h-3.05l15.12-40.07h2.63l14.95,40.07H523.5z M511.2,735.77
				c-0.2-0.56-0.37-1.11-0.5-1.65c-0.13-0.47-0.27-0.93-0.42-1.4h-0.11c-0.32,1.23-0.62,2.23-0.92,2.99l-6.74,18.58h15.45
				L511.2,735.77z"/>
			<path class="st1" d="M568.13,769.3v-28.45c0-0.69,0.1-2.65,0.31-5.9h-0.11c-0.58,1.51-1.06,2.67-1.45,3.49l-14.25,30.85h-0.89
				l-14.31-30.68c-0.47-0.99-0.9-2.25-1.32-3.77h-0.14c0.13,1.79,0.2,3.57,0.2,5.34v29.12h-2.77v-40.07h2.57l14.95,32.28
				c0.09,0.18,0.2,0.44,0.31,0.75c0.11,0.32,0.23,0.63,0.36,0.95c0.19,0.48,0.38,1.02,0.59,1.62h0.17l0.31-0.9
				c0.02-0.07,0.33-0.96,0.95-2.65l14.73-32.05h2.46v40.07H568.13z"/>
			<path class="st1" d="M615.8,769.3v-28.45c0-0.69,0.1-2.65,0.31-5.9H616c-0.58,1.51-1.06,2.67-1.45,3.49l-14.25,30.85h-0.89
				l-14.31-30.68c-0.47-0.99-0.9-2.25-1.32-3.77h-0.14c0.13,1.79,0.2,3.57,0.2,5.34v29.12h-2.77v-40.07h2.57l14.95,32.28
				c0.09,0.18,0.2,0.44,0.31,0.75c0.11,0.32,0.23,0.63,0.36,0.95c0.19,0.48,0.38,1.02,0.59,1.62h0.17l0.31-0.9
				c0.02-0.07,0.33-0.96,0.95-2.65L616,729.23h2.46v40.07H615.8z"/>
			<path class="st1" d="M628.74,769.3v-40.07h18.72v2.54h-15.95v16.07h14.81v2.51h-14.81v16.43h16.88v2.52H628.74z"/>
			<path class="st1" d="M677.87,769.3l-5.34-11.74c-1.1-2.42-2.2-4.05-3.3-4.88s-2.48-1.24-4.13-1.24h-4.97v17.86h-2.77v-40.07
				h11.12c3.54,0,6.32,0.96,8.34,2.86c2.02,1.91,3.03,4.43,3.03,7.56c0,2.89-0.83,5.3-2.49,7.24c-1.66,1.94-3.98,3.18-6.96,3.75
				v0.11c1.58,0.63,3.13,2.56,4.64,5.79L681,769.3H677.87z M660.12,731.77v17.16h6.9c3.06,0,5.48-0.8,7.28-2.4
				c1.8-1.6,2.7-3.8,2.7-6.6c0-2.55-0.81-4.55-2.43-5.99c-1.62-1.45-3.94-2.17-6.96-2.17H660.12z"/>
		</g>
	</g>
</g>
</svg>
