<svg xmlns="http://www.w3.org/2000/svg" width="107.939" height="60.311" viewBox="0 0 107.939 60.311">
  <g id="grad-cap" transform="translate(-11.02 -32.5)">
    <path id="Path_5" data-name="Path 5" d="M37.041,66.655l23.406,8.788a8,8,0,0,0,5.653-.011l22.862-8.684v16.7c0,.016,0,.032,0,.047,0,5.145-11.623,9.316-25.961,9.316S37.041,88.64,37.041,83.5c0-.005,0-.011,0-.016s0-.021,0-.032Z" fill="#1d60aa" fill-rule="evenodd"/>
    <path id="Path_6" data-name="Path 6" d="M110.065,79.205c.781-1.434,1.664-3.3,2.412-4.953a1.643,1.643,0,0,1,2.951-.352,25.076,25.076,0,0,1,2.481,6.394,1.5,1.5,0,0,1-.4,1.5c-1.761,1.566-4.481,1.147-6.593.346A2.045,2.045,0,0,1,110.065,79.205Z" fill="#fff"/>
    <path id="Path_7" data-name="Path 7" d="M114.04,74.126a.88.88,0,0,0-.652.538c-.751,1.664-1.646,3.553-2.445,5.02a1.359,1.359,0,0,0-.128.971.749.749,0,0,0,.456.547,9.173,9.173,0,0,0,3.081.65,3.582,3.582,0,0,0,2.493-.808.52.52,0,0,0,.092-.514,24.172,24.172,0,0,0-2.372-6.124A.492.492,0,0,0,114.04,74.126Zm-.273-1.981a2.486,2.486,0,0,1,2.525,1.253l-.864.5m-1.661-1.757a2.877,2.877,0,0,0-2.2,1.7Zm2.525,1.253a26.086,26.086,0,0,1,2.589,6.664,2.5,2.5,0,0,1-.707,2.477,5.567,5.567,0,0,1-3.838,1.313,11.163,11.163,0,0,1-3.775-.78,3.043,3.043,0,0,1-1.375-4.344c.764-1.4,1.635-3.237,2.379-4.886" fill="#1d60aa" fill-rule="evenodd"/>
    <path id="Path_8" data-name="Path 8" d="M112.252,71.609a1,1,0,0,1,1.407.141,3.769,3.769,0,0,1,.63,1.548,15.967,15.967,0,0,1,.263,1.891c.116,1.332.136,2.774.119,3.7a1,1,0,1,1-2-.036c.015-.877,0-2.246-.112-3.49a13.991,13.991,0,0,0-.226-1.643,4.078,4.078,0,0,0-.148-.535.892.892,0,0,0-.077-.17l0,0A1,1,0,0,1,112.252,71.609Z" fill="#1d60aa" fill-rule="evenodd"/>
    <path id="Path_9" data-name="Path 9" d="M113.475,52.306a1.5,1.5,0,0,1,1.5,1.5V70.417a1.5,1.5,0,0,1-3,0V53.806A1.5,1.5,0,0,1,113.475,52.306Z" fill="#1d60aa" fill-rule="evenodd"/>
    <path id="Path_10" data-name="Path 10" d="M117.6,71.007a4.128,4.128,0,1,1-4.128-4.128A4.128,4.128,0,0,1,117.6,71.007ZM60.155,33.1,11.685,52.413a1.055,1.055,0,0,0,.02,1.968L60.313,72.633a8.442,8.442,0,0,0,5.966-.011L114.3,54.38a1.055,1.055,0,0,0,.02-1.965l-47.886-19.3A8.443,8.443,0,0,0,60.155,33.1Z" fill="#1d60aa"/>
    <path id="Path_11" data-name="Path 11" d="M100.016,55.527a1,1,0,0,1-.6,1.282L65.214,69.292a1,1,0,1,1-.686-1.879L98.733,54.931A1,1,0,0,1,100.016,55.527ZM19.567,53.212a1,1,0,0,1,1.283-.595l11.432,4.194a1,1,0,0,1-.689,1.878L20.161,54.5A1,1,0,0,1,19.567,53.212Z" fill="#fff" fill-rule="evenodd"/>
  </g>
</svg>
