<svg xmlns="http://www.w3.org/2000/svg" width="176" height="176" viewBox="0 0 176 176">
  <g id="Logo" transform="translate(0 0.012)">
    <path id="Icon_awesome-database" data-name="Icon awesome-database" d="M64.22,10.485v6.553c0,5.775-14.383,10.485-32.11,10.485S0,22.813,0,17.038V10.485C0,4.71,14.383,0,32.11,0S64.22,4.71,64.22,10.485Zm0,14.744V39.974c0,5.775-14.383,10.485-32.11,10.485S0,45.748,0,39.974V25.229c6.9,4.751,19.525,6.963,32.11,6.963S57.321,29.98,64.22,25.229Zm0,22.936V62.909c0,5.775-14.383,10.485-32.11,10.485S0,68.684,0,62.909V48.165c6.9,4.751,19.525,6.963,32.11,6.963S57.321,52.916,64.22,48.165Z" transform="translate(56.022 51.5)" fill="none" stroke="#fff" stroke-width="3"/>
    <g id="Ellipse_8" data-name="Ellipse 8" transform="translate(0 -0.012)" fill="none" stroke="#707070" stroke-width="2">
      <circle cx="88" cy="88" r="88" stroke="none"/>
      <circle cx="88" cy="88" r="87" fill="none"/>
    </g>
  </g>
</svg>
