<svg xmlns="http://www.w3.org/2000/svg" width="176" height="176" viewBox="0 0 176 176">
  <g id="Logo" transform="translate(0 -0.182)">
    <g id="Ellipse_8" data-name="Ellipse 8" transform="translate(0 0.182)" fill="none" stroke="#707070" stroke-width="2">
      <circle cx="88" cy="88" r="88" stroke="none"/>
      <circle cx="88" cy="88" r="87" fill="none"/>
    </g>
    <path id="Icon_simple-dot-net" data-name="Icon simple-dot-net" d="M11.481,27.425V59.14h3.708V36.212a32.549,32.549,0,0,0-.177-4.349h.139a10.542,10.542,0,0,0,1.009,1.984l16.3,25.293h4.556V27.425h-3.7v22.3a33.558,33.558,0,0,0,.224,4.662h-.085q-.3-.574-1.288-2.121L16.3,27.425Zm33.767,0V59.14H62.1l.017-3.48H49.04V44.665H60.487v-3.34H49.04V30.782H61.323V27.425Zm19.711,0v3.357h9.117V59.14h3.7V30.782H87V27.425ZM2.369,54.618a2.331,2.331,0,0,0-1.655.747A2.436,2.436,0,0,0,0,57.1a2.4,2.4,0,0,0,.713,1.74,2.349,2.349,0,0,0,1.74.73,2.4,2.4,0,0,0,1.74-.73,2.383,2.383,0,0,0,.73-1.74,2.418,2.418,0,0,0-.73-1.739,2.383,2.383,0,0,0-1.74-.747H2.368Z" transform="translate(44.805 44.003)" fill="#fff"/>
  </g>
</svg>
