<svg xmlns="http://www.w3.org/2000/svg" xmlns:xlink="http://www.w3.org/1999/xlink" width="382" height="283" viewBox="0 0 382 283">
  <defs>
    <linearGradient id="linear-gradient" x1="0.935" y1="0.088" x2="0.053" y2="0.941" gradientUnits="objectBoundingBox">
      <stop offset="0" stop-color="#0f6bc7"/>
      <stop offset="1" stop-color="#083664"/>
    </linearGradient>
  </defs>
  <g id="Pro-BackPack" transform="translate(-350 -1822.38)">
    <rect id="Rectangle_31" data-name="Rectangle 31" width="382" height="283" rx="56" transform="translate(350 1822.38)" fill="url(#linear-gradient)"/>
    <g id="Group_9" data-name="Group 9" transform="translate(488.299 1852.38)">
      <g id="backpack" transform="translate(-10 42)">
        <path id="Path_20" data-name="Path 20" d="M227.059,287.46c10.583,0,18.477-2.919,23.481-8.689,7.169-8.266,5.394-19.143,5.316-19.6l-7.067,1.2c.013.08,1.249,8.091-3.706,13.752-3.8,4.342-10.372,6.413-19.538,6.147l-.206,7.166Q226.21,287.46,227.059,287.46Z" transform="translate(-135.892 -147.793)" fill="#00554b"/>
        <path id="Path_21" data-name="Path 21" d="M275.494,260.371l7.067-1.2a26.477,26.477,0,0,1-3.108,16.539,9.491,9.491,0,0,1-7.285-2.043C276.676,268.041,275.507,260.449,275.494,260.371Z" transform="translate(-162.597 -147.793)" fill="#005b4e"/>
        <path id="Path_22" data-name="Path 22" d="M201.062,82.053,205.6,66.575c1.352.4,13.527,4.273,24.48,18.084a75.211,75.211,0,0,1,13.739,28.9,119.189,119.189,0,0,1,3,33.327,8.211,8.211,0,0,1-2.217,5.279l-4.008,4.285a3.224,3.224,0,0,1-4.992-.345l-3.408-4.842a8.262,8.262,0,0,1-1.493-5.071c.8-21.285-3.488-38.653-12.617-50.686C210.12,85.011,201.062,82.053,201.062,82.053Z" transform="translate(-122.048 -37.965)" fill="#00665a"/>
        <path id="Path_23" data-name="Path 23" d="M57.114,287.46c-10.583,0-18.477-2.919-23.481-8.689-7.169-8.266-5.394-19.143-5.316-19.6l7.067,1.2c-.013.08-1.249,8.091,3.706,13.752,3.8,4.342,10.372,6.413,19.538,6.147l.206,7.166Q57.963,287.46,57.114,287.46Z" transform="translate(-23.397 -147.793)" fill="#00554b"/>
        <path id="Path_24" data-name="Path 24" d="M35.383,260.371l-7.067-1.2a26.476,26.476,0,0,0,3.108,16.539,10.686,10.686,0,0,0,7.285-2.043C34.2,268.041,35.37,260.449,35.383,260.371Z" transform="translate(-23.397 -147.793)" fill="#005b4e"/>
        <path id="Path_25" data-name="Path 25" d="M58.532,66.575c-1.352.4-13.527,4.273-24.48,18.084a75.212,75.212,0,0,0-13.739,28.9,119.188,119.188,0,0,0-3,33.327,8.211,8.211,0,0,0,2.217,5.279l4.008,4.285a3.224,3.224,0,0,0,4.992-.345l3.408-4.842a8.262,8.262,0,0,0,1.493-5.071c-.8-21.285,3.488-38.653,12.617-50.686,7.961-10.494,16.729-13.359,17.1-13.475Z" transform="translate(-17.201 -37.965)" fill="#00665a"/>
        <g id="Group_1" data-name="Group 1" transform="translate(9.486 28.611)">
          <path id="Path_26" data-name="Path 26" d="M71.12,66.575c-1.352.4-13.527,4.273-24.48,18.084a72.223,72.223,0,0,0-6.906,22.646c-1.541,13.659.854,26.547,6.224,36.637-.427-20.261,3.876-36.832,12.681-48.439,7.961-10.494,16.729-13.359,17.1-13.475Z" transform="translate(-39.274 -66.575)" fill="#00554b"/>
          <path id="Path_27" data-name="Path 27" d="M200.957,82.053,205.5,66.575c1.352.4,13.527,4.273,24.48,18.084a57.461,57.461,0,0,1,6.906,22.646c1.059,13.7-.854,26.547-6.224,36.637.427-20.261-3.876-36.832-12.681-48.439-7.961-10.494-16.729-13.359-17.1-13.475Z" transform="translate(-131.43 -66.575)" fill="#00554b"/>
        </g>
        <path id="Path_28" data-name="Path 28" d="M149.2,147.652V77.938a40.8,40.8,0,0,0-40.681-40.681h0A40.8,40.8,0,0,0,67.837,77.938v69.714A13.262,13.262,0,0,0,81.1,160.913h54.839A13.262,13.262,0,0,0,149.2,147.652Z" transform="translate(-46.076 -21.246)" fill="#00aa95"/>
        <g id="Group_2" data-name="Group 2" transform="translate(21.761 16.011)">
          <path id="Path_29" data-name="Path 29" d="M87.593,147.651V77.938a40.842,40.842,0,0,1,30.8-39.458,40.392,40.392,0,0,0-9.878-1.223h0A40.8,40.8,0,0,0,67.837,77.937v69.714A13.262,13.262,0,0,0,81.1,160.913h19.756A13.261,13.261,0,0,1,87.593,147.651Z" transform="translate(-67.837 -37.256)" fill="#087"/>
          <path id="Path_30" data-name="Path 30" d="M67.837,192.943v43.489A13.261,13.261,0,0,0,81.1,249.694h54.839A13.262,13.262,0,0,0,149.2,236.432V192.943Z" transform="translate(-67.837 -126.037)" fill="#087"/>
        </g>
        <path id="Path_31" data-name="Path 31" d="M67.837,236.433A13.262,13.262,0,0,0,81.1,249.695h19.756a13.262,13.262,0,0,1-13.262-13.262V192.944H67.837Z" transform="translate(-46.076 -110.027)" fill="#00665a"/>
        <path id="Path_32" data-name="Path 32" d="M147.2,248.357H105.982a6.452,6.452,0,0,1-6.452-6.452V222.192a6.452,6.452,0,0,1,6.452-6.452H147.2a6.452,6.452,0,0,1,6.452,6.452v19.713A6.452,6.452,0,0,1,147.2,248.357Z" transform="translate(-64.149 -123.027)" fill="#ffe477"/>
        <g id="Group_3" data-name="Group 3" transform="translate(35.381 92.714)">
          <path id="Path_33" data-name="Path 33" d="M113.618,241.906V222.193a6.452,6.452,0,0,1,6.452-6.452H105.982a6.452,6.452,0,0,0-6.452,6.452v19.713a6.452,6.452,0,0,0,6.452,6.452H120.07A6.452,6.452,0,0,1,113.618,241.906Z" transform="translate(-99.53 -215.741)" fill="#ffd422"/>
          <path id="Path_34" data-name="Path 34" d="M147.2,215.74H105.982a6.452,6.452,0,0,0-6.452,6.452v6.452h54.122v-6.452A6.452,6.452,0,0,0,147.2,215.74Z" transform="translate(-99.53 -215.74)" fill="#ffd422"/>
        </g>
        <path id="Path_35" data-name="Path 35" d="M120.07,215.74H105.982a6.452,6.452,0,0,0-6.452,6.452v6.452h14.088v-6.452A6.452,6.452,0,0,1,120.07,215.74Z" transform="translate(-64.149 -123.027)" fill="#eebf00"/>
        <path id="Path_36" data-name="Path 36" d="M154.268,249.982H115.917a2.108,2.108,0,0,1,0-4.215h38.352a2.108,2.108,0,1,1,0,4.215Z" transform="translate(-72.292 -140.149)" fill="#006d5d"/>
        <path id="Path_37" data-name="Path 37" d="M67.837,288.422v2.458A13.262,13.262,0,0,0,81.1,304.141h4.966C81.951,291.276,73.158,288.718,67.837,288.422Z" transform="translate(-46.076 -164.474)" fill="#eebf00"/>
        <path id="Path_38" data-name="Path 38" d="M232.977,288.422v2.458a13.262,13.262,0,0,1-13.262,13.262h-4.966C218.862,291.276,227.656,288.718,232.977,288.422Z" transform="translate(-129.853 -164.474)" fill="#ffd422"/>
        <path id="Path_39" data-name="Path 39" d="M108.518,66.946c-20.082,0-31.24,10.072-37.064,18.521a49.57,49.57,0,0,0-3.46,5.853c-.1,1.17-.158,2.353-.158,3.549v9.387a46.8,46.8,0,0,1,7.088-16.4c7.637-11.08,18.94-16.7,33.593-16.7,14.594,0,25.866,5.575,33.5,16.569a47.08,47.08,0,0,1,7.177,16.53V94.868c0-1.2-.055-2.378-.158-3.549a49.591,49.591,0,0,0-3.46-5.853C139.758,77.017,128.6,66.946,108.518,66.946Z" transform="translate(-46.076 -38.176)" fill="#006d5d"/>
        <path id="Path_40" data-name="Path 40" d="M71.454,86.883a49.568,49.568,0,0,0-3.46,5.853c-.1,1.17-.158,2.353-.158,3.549v9.387a46.8,46.8,0,0,1,7.088-16.4,36.76,36.76,0,0,1,18.82-14.429,41.049,41.049,0,0,1,4.046-5.423A41.568,41.568,0,0,0,71.454,86.883Z" transform="translate(-46.076 -39.589)" fill="#00665a"/>
        <path id="Path_41" data-name="Path 41" d="M154.255,24.254a3.638,3.638,0,0,1-3.638-3.638V14.088a6.812,6.812,0,1,0-13.623,0v6.528a3.638,3.638,0,0,1-7.276,0V14.088a14.088,14.088,0,0,1,28.176,0v6.528A3.638,3.638,0,0,1,154.255,24.254Z" transform="translate(-81.364)" fill="#ffd422"/>
        <g id="Group_4" data-name="Group 4" transform="translate(48.354)">
          <path id="Path_42" data-name="Path 42" d="M174.9,30.272V23.743a6.812,6.812,0,0,0-8.492-6.6,6.823,6.823,0,0,1,5.131,6.6v6.528a3.635,3.635,0,0,0,5.318,3.225A3.636,3.636,0,0,1,174.9,30.272Z" transform="translate(-150.642 -9.655)" fill="#eebf00"/>
          <path id="Path_43" data-name="Path 43" d="M133.079,20.616V14.088A14.106,14.106,0,0,1,145.487.1a14.063,14.063,0,0,0-15.768,13.984v6.528a3.635,3.635,0,0,0,5.318,3.225A3.635,3.635,0,0,1,133.079,20.616Z" transform="translate(-129.719)" fill="#eebf00"/>
        </g>
      </g>
    </g>
  </g>
</svg>
