<svg xmlns="http://www.w3.org/2000/svg" width="176" height="176" viewBox="0 0 176 176">
  <g id="Logo" transform="translate(0 -0.182)">
    <g id="Ellipse_8" data-name="Ellipse 8" transform="translate(0 0.182)" fill="none" stroke="#707070" stroke-width="2">
      <circle cx="88" cy="88" r="88" stroke="none"/>
      <circle cx="88" cy="88" r="87" fill="none"/>
    </g>
    <path id="Icon_awesome-react" data-name="Icon awesome-react" d="M71.364,27.027q-1.382-.461-2.764-.87c.154-.631.29-1.263.427-1.894,2.1-10.17.717-18.344-3.942-21.041C60.6.645,53.276,3.324,45.87,9.774c-.734.631-1.45,1.3-2.133,1.962-.461-.444-.939-.887-1.416-1.314-7.764-6.894-15.546-9.8-20.2-7.082-4.471,2.594-5.8,10.29-3.925,19.914.188.956.392,1.894.631,2.85-1.092.307-2.167.648-3.174,1.007C6.536,30.269,0,35.252,0,40.405c0,5.324,6.962,10.665,16.433,13.908.768.256,1.536.512,2.321.734-.256,1.024-.478,2.031-.683,3.072C16.28,67.589,17.679,75.1,22.15,77.674c4.607,2.662,12.355-.068,19.9-6.672.6-.529,1.195-1.075,1.792-1.655.751.734,1.536,1.433,2.321,2.116,7.3,6.28,14.522,8.822,18.976,6.246,4.607-2.662,6.109-10.734,4.164-20.563q-.23-1.126-.512-2.3c.546-.154,1.075-.324,1.6-.495,9.846-3.259,16.979-8.532,16.979-13.942C87.371,35.235,80.647,30.218,71.364,27.027ZM48.276,12.539C54.624,7.01,60.545,4.843,63.241,6.4c2.884,1.655,3.993,8.345,2.184,17.133-.119.58-.239,1.143-.392,1.706a87.357,87.357,0,0,0-11.484-1.809,86.218,86.218,0,0,0-7.27-9.061c.666-.631,1.314-1.229,2-1.826ZM28.532,49.262c.87,1.485,1.758,2.969,2.7,4.42A77.271,77.271,0,0,1,23.31,52.4a79.715,79.715,0,0,1,2.782-7.594C26.877,46.31,27.679,47.794,28.532,49.262ZM23.361,28.733c2.457-.546,5.068-.99,7.781-1.331-.9,1.416-1.792,2.867-2.628,4.334-.836,1.45-1.655,2.935-2.423,4.437-1.075-2.543-1.979-5.034-2.73-7.44ZM28.037,40.49c1.126-2.355,2.355-4.659,3.652-6.928s2.7-4.471,4.164-6.638c2.56-.188,5.171-.29,7.833-.29s5.29.1,7.833.29q2.176,3.225,4.147,6.6t3.7,6.894q-1.715,3.532-3.686,6.962c-1.3,2.27-2.679,4.471-4.13,6.655-2.543.188-5.188.273-7.867.273s-5.273-.085-7.781-.239q-2.227-3.251-4.2-6.655C30.392,45.149,29.18,42.845,28.037,40.49Zm30.819,8.737c.87-1.5,1.689-3.02,2.491-4.556a79.216,79.216,0,0,1,2.884,7.56,74.954,74.954,0,0,1-8.02,1.365C57.132,52.163,58,50.7,58.856,49.228Zm2.457-13.054c-.8-1.5-1.621-3-2.474-4.471q-1.254-2.176-2.611-4.3a78.529,78.529,0,0,1,7.833,1.365A75.52,75.52,0,0,1,61.313,36.173Zm-17.594-19.2a74.934,74.934,0,0,1,5.051,6.109c-3.379-.154-6.775-.154-10.153,0C40.29,20.883,42.013,18.836,43.719,16.975ZM23.925,6.515c2.867-1.672,9.232.717,15.938,6.655.427.375.853.785,1.3,1.195a86.7,86.7,0,0,0-7.321,9.061A89.952,89.952,0,0,0,22.372,25.2c-.222-.87-.41-1.758-.6-2.645C20.17,14.3,21.228,8.068,23.925,6.515ZM19.744,51.5c-.717-.2-1.416-.427-2.116-.666A34.8,34.8,0,0,1,6.877,45.507a7.657,7.657,0,0,1-3.208-5.1c0-3.123,5.392-7.116,13.174-9.829.973-.341,1.962-.648,2.952-.939A90.74,90.74,0,0,0,23.976,40.49,93.28,93.28,0,0,0,19.744,51.5Zm19.9,16.723a31.234,31.234,0,0,1-9.624,6.024,7.553,7.553,0,0,1-6.024.222c-2.713-1.57-3.84-7.594-2.3-15.7.188-.956.392-1.911.631-2.85a85.37,85.37,0,0,0,11.587,1.672A90.054,90.054,0,0,0,41.279,66.7C40.733,67.231,40.187,67.743,39.641,68.22Zm4.181-4.147c-1.741-1.877-3.481-3.959-5.171-6.194,1.638.068,3.328.1,5.034.1,1.758,0,3.481-.034,5.188-.119A73.591,73.591,0,0,1,43.822,64.074Zm22.3,5.119a7.584,7.584,0,0,1-2.816,5.341c-2.713,1.57-8.5-.478-14.744-5.836-.717-.614-1.433-1.28-2.167-1.962a84.417,84.417,0,0,0,7.2-9.147A84.122,84.122,0,0,0,65.238,55.8c.171.7.324,1.4.461,2.082A31.107,31.107,0,0,1,66.125,69.193Zm3.106-18.344c-.478.154-.956.307-1.45.444a86.687,86.687,0,0,0-4.351-10.887A86.255,86.255,0,0,0,67.61,29.672c.887.256,1.741.529,2.56.8,7.952,2.73,13.532,6.792,13.532,9.9,0,3.345-5.956,7.662-14.471,10.478Zm-25.546-2.56a7.816,7.816,0,1,0-7.816-7.816A7.814,7.814,0,0,0,43.685,48.289Z" transform="translate(44.28 47.572)" fill="#fff"/>
  </g>
</svg>
