<svg xmlns="http://www.w3.org/2000/svg" width="176" height="176" viewBox="0 0 176 176">
  <g id="Logo" transform="translate(0 -0.182)">
    <g id="Ellipse_8" data-name="Ellipse 8" transform="translate(0 0.182)" fill="none" stroke="#707070" stroke-width="2">
      <circle cx="88" cy="88" r="88" stroke="none"/>
      <circle cx="88" cy="88" r="87" fill="none"/>
    </g>
    <path id="Icon_awesome-sass" data-name="Icon awesome-sass" d="M51.289,64.387C51.238,64.489,51.187,64.57,51.289,64.387ZM93.622,49.6A22.287,22.287,0,0,0,83.766,51.9c-1-2.022-2.039-3.789-2.209-5.115a13.653,13.653,0,0,1-.187-4.3,36.2,36.2,0,0,1,1.291-4.622c-.017-.187-.238-1.121-2.43-1.138s-4.078.425-4.3,1a20.871,20.871,0,0,0-.9,3.245c-.391,1.988-4.382,9.091-6.642,12.8a13.194,13.194,0,0,1-1.512-3.738,13.653,13.653,0,0,1-.187-4.3,36.2,36.2,0,0,1,1.291-4.622c-.017-.187-.238-1.121-2.428-1.138s-4.078.425-4.3,1-.459,1.937-.9,3.246S54.6,57.352,53.206,60.428c-.714,1.563-1.325,2.821-1.767,3.67-.068.136-.119.221-.153.289.051-.085.085-.17.085-.136-.374.731-.595,1.138-.595,1.138v.017c-.289.544-.612,1.037-.765,1.037a7.049,7.049,0,0,1,.051-3.381c.8-4.112,2.685-10.5,2.668-10.722-.017-.119.357-1.223-1.24-1.818a2,2,0,0,0-2.243.374c-.136,0-.238.34-.238.34s1.716-7.2-3.295-7.2c-3.127,0-7.477,3.432-9.614,6.542-1.342.731-4.248,2.311-7.307,3.993-1.172.646-2.379,1.308-3.517,1.937-.085-.085-.153-.17-.238-.255C18.956,49.757,7.728,45.169,8.2,36.452,8.374,33.274,9.478,24.931,29.8,14.8c16.652-8.292,29.966-6.015,32.258-.952,3.3,7.222-7.118,20.662-24.411,22.6-6.591.731-10.056-1.818-10.923-2.77-.9-1-1.037-1.054-1.376-.867-.561.306-.2,1.189,0,1.716.51,1.342,2.634,3.721,6.251,4.911,3.178,1.037,10.906,1.614,20.25-2.005,10.5-4.044,18.669-15.31,16.273-24.741C65.678,3.113,49.787-.031,34.761,5.3c-8.953,3.178-18.635,8.173-25.6,14.681C.887,27.735-.437,34.481.107,37.3,2.042,47.31,15.837,53.835,21.357,58.66c-.272.153-.527.289-.765.425C17.825,60.462,7.308,65.967,4.676,71.778,1.7,78.371,5.169,83.1,7.444,83.741c7.1,1.971,14.372-1.58,18.278-7.409s3.432-13.441,1.631-16.907c-.017-.051-.051-.085-.068-.136.714-.425,1.444-.85,2.175-1.274,1.409-.833,2.785-1.6,3.991-2.26a26.393,26.393,0,0,0-1.427,7.239c-.306,3.738,1.24,8.581,3.246,10.484a3.566,3.566,0,0,0,2.615.85c2.345,0,3.4-1.937,4.569-4.248,1.444-2.821,2.719-6.1,2.719-6.1s-1.6,8.87,2.77,8.87c1.6,0,3.193-2.056,3.908-3.11v.017s.034-.068.119-.2c.17-.255.255-.408.255-.408v-.051c.646-1.1,2.056-3.636,4.178-7.816,2.753-5.4,5.385-12.149,5.385-12.149a34.2,34.2,0,0,0,1.054,4.384,41.044,41.044,0,0,0,2.277,5.1C64.473,59.493,64.083,60,64.083,60a.053.053,0,0,0,.017.034c-.51.68-1.087,1.41-1.682,2.124-2.173,2.583-4.758,5.539-5.1,6.389a1.736,1.736,0,0,0,.476,2.328,4.13,4.13,0,0,0,2.666.425,11.783,11.783,0,0,0,3.993-.918,13.967,13.967,0,0,0,3.431-1.8,7.671,7.671,0,0,0,3.3-6.763,14.073,14.073,0,0,0-1.24-4.792c.187-.272.391-.561.578-.85a90.329,90.329,0,0,0,5.963-10.3,34.2,34.2,0,0,0,1.054,4.384,29.97,29.97,0,0,0,1.935,4.367,18.679,18.679,0,0,0-5.793,7.494c-1.257,3.619-.272,5.251,1.58,5.624a5.7,5.7,0,0,0,2.906-.595,13.5,13.5,0,0,0,3.669-1.886c2.124-1.563,4.178-3.755,4.042-6.729a12.641,12.641,0,0,0-.918-3.976,20.741,20.741,0,0,1,10.55-1.223c9.461,1.1,11.313,7.018,10.957,9.482a6.282,6.282,0,0,1-3.008,4.248c-.663.408-.867.561-.816.867.085.442.391.425.952.323a7.382,7.382,0,0,0,5.147-6.576c.272-5.777-5.283-12.132-15.123-12.081ZM20.695,74.191C17.57,77.607,13.186,78.9,11.3,77.811c-2.022-1.176-1.223-6.2,2.632-9.842a50.347,50.347,0,0,1,7.373-5.505c.459-.272,1.121-.68,1.937-1.172.136-.085.2-.119.2-.119.153-.1.323-.187.493-.289a13.563,13.563,0,0,1-3.246,13.3ZM43.525,58.66c-1.088,2.668-3.38,9.465-4.773,9.108-1.189-.306-1.92-5.488-.238-10.586a23.436,23.436,0,0,1,3.721-6.814c1.715-1.92,3.6-2.532,4.042-1.767C46.873,49.6,44.205,57,43.525,58.66Zm18.861,9.006c-.459.238-.884.391-1.088.272-.153-.085.187-.408.187-.408s2.362-2.532,3.3-3.687c.544-.68,1.172-1.478,1.85-2.362,0,.085.017.17.017.272-.022,3.042-2.943,5.1-4.268,5.913Zm14.542-3.313c-.34-.238-.289-1.037.85-3.517a13.207,13.207,0,0,1,3.229-4.163,6.148,6.148,0,0,1,.323,1.835,5.991,5.991,0,0,1-4.4,5.845Z" transform="translate(33.262 44.545)" fill="#fff"/>
  </g>
</svg>
