<svg xmlns="http://www.w3.org/2000/svg" width="176" height="176" viewBox="0 0 176 176">
  <g id="Logo" transform="translate(0 0.012)">
    <g id="Ellipse_8" data-name="Ellipse 8" transform="translate(0 -0.012)" fill="none" stroke="#707070" stroke-width="2">
      <circle cx="88" cy="88" r="88" stroke="none"/>
      <circle cx="88" cy="88" r="87" fill="none"/>
    </g>
    <path id="Icon_material-data-usage" data-name="Icon material-data-usage" d="M47.125,7.431V18.415A25.358,25.358,0,0,1,68.875,43.5a25.823,25.823,0,0,1-1.74,9.208l9.425,5.546A35.8,35.8,0,0,0,79.75,43.5,36.271,36.271,0,0,0,47.125,7.431ZM43.5,68.875a25.359,25.359,0,0,1-3.625-50.46V7.431A36.247,36.247,0,1,0,72.681,64.924l-9.425-5.546A25.2,25.2,0,0,1,43.5,68.875Z" transform="translate(44.664 44.606)" fill="none" stroke="#fff" stroke-width="3"/>
  </g>
</svg>
