<svg xmlns="http://www.w3.org/2000/svg" width="176" height="176" viewBox="0 0 176 176">
  <g id="Logo" transform="translate(0 0.012)">
    <g id="Ellipse_8" data-name="Ellipse 8" transform="translate(0 -0.012)" fill="none" stroke="#707070" stroke-width="2">
      <circle cx="88" cy="88" r="88" stroke="none"/>
      <circle cx="88" cy="88" r="87" fill="none"/>
    </g>
    <path id="Icon_awesome-users" data-name="Icon awesome-users" d="M13.941,33.319a9.294,9.294,0,1,0-9.294-9.294A9.3,9.3,0,0,0,13.941,33.319Zm65.058,0A9.294,9.294,0,1,0,69.7,24.025,9.3,9.3,0,0,0,79,33.319Zm4.647,4.647H74.352a9.267,9.267,0,0,0-6.549,2.7A21.241,21.241,0,0,1,78.708,56.554h9.584a4.642,4.642,0,0,0,4.647-4.647V47.26A9.3,9.3,0,0,0,83.646,37.966Zm-37.176,0A16.264,16.264,0,1,0,30.205,21.7,16.256,16.256,0,0,0,46.47,37.966Zm11.153,4.647H56.417a22.455,22.455,0,0,1-19.895,0H35.317A16.733,16.733,0,0,0,18.588,59.342v4.182a6.972,6.972,0,0,0,6.97,6.97H67.381a6.972,6.972,0,0,0,6.97-6.97V59.342A16.733,16.733,0,0,0,57.622,42.613ZM25.137,40.667a9.267,9.267,0,0,0-6.549-2.7H9.294A9.3,9.3,0,0,0,0,47.26v4.647a4.642,4.642,0,0,0,4.647,4.647h9.57a21.3,21.3,0,0,1,10.92-15.887Z" transform="translate(42.375 48.5)" fill="none" stroke="#fff" stroke-width="3"/>
  </g>
</svg>
