<svg id="app-icon" xmlns="http://www.w3.org/2000/svg" width="64" height="64" viewBox="0 0 64 64">
  <rect id="Rectangle_1" data-name="Rectangle 1" width="64" height="64" fill="#e95b54"/>
  <g id="Group_2" data-name="Group 2" transform="translate(15.592 13.689)">
    <path id="Path_6" data-name="Path 6" d="M3,30.03c0,.9,3.164,1.631,7.068,1.631s7.068-.729,7.068-1.631V32.2c0,.9-3.164,1.631-7.068,1.631S3,33.107,3,32.2ZM15.505,11v2.719c0,.37-.4.707-1.087.973a12.42,12.42,0,0,1-4.35.658,12.42,12.42,0,0,1-4.35-.658c-.685-.266-1.087-.6-1.087-.973V11c0,.9,2.436,1.631,5.437,1.631S15.505,11.9,15.505,11Z" transform="translate(-0.456 -4.107)" fill="#fff"/>
    <path id="Path_7" data-name="Path 7" d="M3,39.662V32.344c0-.076,0-.152.005-.234.141.875,3.246,1.571,7.063,1.571s6.921-.7,7.063-1.571c.005.082.005.158.005.234v7.318c0,.9-3.164,1.631-7.068,1.631S3,40.565,3,39.662Z" transform="translate(-0.456 -13.739)" fill="#fff"/>
    <path id="Path_14" data-name="Path 14" d="M5.5,0C8.538,0,11,.672,11,1.5S8.538,3,5.5,3,0,2.328,0,1.5,2.462,0,5.5,0Z" transform="translate(4 5.622)" fill="#fff"/>
    <path id="Path_13" data-name="Path 13" d="M0,0H3V7H0Z" transform="translate(24 25.622)" fill="#fff"/>
    <path id="Path_8" data-name="Path 8" d="M46.524,57v2.175H40V57h6.524Z" transform="translate(-17.339 -25.096)" fill="#fff"/>
    <path id="Path_9" data-name="Path 9" d="M46.7,42v2.175H38V42h8.7Z" transform="translate(-16.427 -18.252)" fill="#fff"/>
    <path id="Path_10" data-name="Path 10" d="M46.262,10v2.175H43V10h3.262Z" transform="translate(-18.708 -3.65)" fill="#fff"/>
    <path id="Path_11" data-name="Path 11" d="M17.224,20.593H17.21a5.143,5.143,0,0,0-1.5-3.375,4.115,4.115,0,0,1-.888-1.33,4.056,4.056,0,0,1-.312-1.569v-1.1c.669-.336,1.087-.773,1.087-1.32V9.175C15.593,7.681,12.493,7,9.612,7s-5.981.681-5.981,2.175v2.719c0,.548.419.984,1.087,1.32v1.1a4.072,4.072,0,0,1-1.2,2.9A5.2,5.2,0,0,0,2.4,18.9a5.123,5.123,0,0,0-.381,1.694H2a.9.9,0,0,0,.01.095c0,.066-.01.132-.01.2V34.729C2,36.843,8.833,36.9,9.612,36.9s7.612-.061,7.612-2.175V20.886c0-.067-.007-.132-.01-.2A.9.9,0,0,0,17.224,20.593Zm-1.087,7.57c-.263.412-2.627,1.129-6.524,1.129s-6.261-.717-6.524-1.129V21.827c1.961.906,5.941.94,6.524.94s4.564-.034,6.524-.94Zm0,2.175c-.263.412-2.627,1.129-6.524,1.129s-6.261-.717-6.524-1.129v-.9c1.961.906,5.941.94,6.524.94s4.564-.034,6.524-.94ZM9.612,12.981c-3.181,0-4.811-.794-4.893-1.087v-1.4a11.982,11.982,0,0,0,4.893.855,12.016,12.016,0,0,0,4.893-.855v1.391C14.423,12.187,12.793,12.981,9.612,12.981Zm0-4.893c3.153,0,4.785.78,4.893,1.087-.109.307-1.74,1.087-4.893,1.087-3.176,0-4.806-.792-4.893-1.078h0C4.806,8.878,6.436,8.087,9.612,8.087Zm-5.324,9.9a5.153,5.153,0,0,0,1.519-3.668v-.7a14.875,14.875,0,0,0,3.806.452,14.875,14.875,0,0,0,3.806-.452v.7a5.142,5.142,0,0,0,.4,1.988,5.2,5.2,0,0,0,1.123,1.681,4.067,4.067,0,0,1,1.185,2.583c-.32.414-2.668,1.111-6.509,1.111s-6.19-.7-6.509-1.111a4.032,4.032,0,0,1,.3-1.251,4.111,4.111,0,0,1,.888-1.332Zm5.324,17.83c-3.9,0-6.261-.717-6.524-1.129V31.614c1.961.906,5.941.94,6.524.94s4.564-.034,6.524-.94v3.073C15.873,35.1,13.51,35.816,9.612,35.816Z" transform="translate(0 -2.281)" fill="#b94842"/>
    <path id="Path_12" data-name="Path 12" d="M5.733,22.052a18.125,18.125,0,0,0,3.367.528l.08-1.087A17.021,17.021,0,0,1,6.023,21Zm0,2.175a18.125,18.125,0,0,0,3.367.528l.08-1.087a17.021,17.021,0,0,1-3.157-.489ZM31.976,23.2h-.544V8.524a.544.544,0,0,0-.544-.544H29.8V6.35a.544.544,0,0,0-.544-.544H28.17V2H27.083V5.806H26a.544.544,0,0,0-.544.544V7.981H24.364a.544.544,0,0,0-.544.544V23.2h-.544a.544.544,0,0,0-.544.544v2.175a.544.544,0,0,0,.544.544H26V31.36H24.364a.544.544,0,0,0-.544.544v2.175a.544.544,0,0,0,.544.544h6.524a.544.544,0,0,0,.544-.544V31.9a.544.544,0,0,0-.544-.544H29.257V26.467h2.719a.544.544,0,0,0,.544-.544V23.748A.544.544,0,0,0,31.976,23.2ZM26.539,6.893h2.175V7.981H26.539ZM24.908,21.03H26V19.942H24.908V18.855H26V17.767H24.908V16.68h1.631V15.593H24.908V14.505H26V13.418H24.908V12.33H26V11.243H24.908V9.068h5.437V23.2H24.908Zm5.437,11.418v1.087H24.908V32.447ZM27.083,31.36V26.467H28.17V31.36Zm4.35-5.981H23.82V24.292h7.612Z" transform="translate(-1.703)" fill="#b94842"/>
  </g>
</svg>
