<svg xmlns="http://www.w3.org/2000/svg" width="140.065" height="156.646" viewBox="0 0 140.065 156.646">
  <g id="Group_9" data-name="Group 9" transform="translate(0)">
    <g id="backpack" transform="translate(0)">
      <path id="Path_20" data-name="Path 20" d="M227.268,290.9c11.87,0,20.723-3.274,26.336-9.745,8.041-9.271,6.05-21.47,5.962-21.984l-7.926,1.347c.015.09,1.4,9.075-4.156,15.424-4.263,4.87-11.633,7.193-21.913,6.894l-.231,8.037Q226.316,290.9,227.268,290.9Z" transform="translate(-125.019 -134.254)" fill="#00554b"/>
      <path id="Path_21" data-name="Path 21" d="M275.9,260.517l7.926-1.347c.078.453,1.626,9.957-3.486,18.55a10.645,10.645,0,0,1-8.171-2.292C277.225,269.119,275.913,260.6,275.9,260.517Z" transform="translate(-149.277 -134.254)" fill="#005b4e"/>
      <path id="Path_22" data-name="Path 22" d="M201.062,83.934l5.09-17.359c1.517.445,15.171,4.792,27.455,20.283a84.354,84.354,0,0,1,15.409,32.409,133.678,133.678,0,0,1,3.361,37.379,9.209,9.209,0,0,1-2.486,5.921l-4.5,4.806a3.616,3.616,0,0,1-5.6-.387l-3.822-5.431a9.266,9.266,0,0,1-1.674-5.687c.9-23.872-3.912-43.351-14.15-56.847C211.221,87.252,201.062,83.934,201.062,83.934Z" transform="translate(-112.443 -34.487)" fill="#00665a"/>
      <path id="Path_23" data-name="Path 23" d="M60.645,290.9c-11.87,0-20.723-3.274-26.336-9.745-8.041-9.271-6.05-21.47-5.962-21.984l7.926,1.347c-.015.09-1.4,9.075,4.156,15.424,4.263,4.87,11.633,7.193,21.913,6.894l.231,8.037Q61.6,290.9,60.645,290.9Z" transform="translate(-22.829 -134.254)" fill="#00554b"/>
      <path id="Path_24" data-name="Path 24" d="M36.273,260.517l-7.926-1.347c-.078.453-1.626,9.957,3.486,18.55A11.985,11.985,0,0,0,40,275.428C34.947,269.119,36.258,260.6,36.273,260.517Z" transform="translate(-22.829 -134.254)" fill="#005b4e"/>
      <path id="Path_25" data-name="Path 25" d="M63.556,66.576C62.04,67.02,48.385,71.368,36.1,86.858a84.354,84.354,0,0,0-15.409,32.409,133.677,133.677,0,0,0-3.361,37.379,9.209,9.209,0,0,0,2.486,5.921l4.5,4.806a3.616,3.616,0,0,0,5.6-.387l3.822-5.431a9.266,9.266,0,0,0,1.674-5.687c-.9-23.873,3.912-43.351,14.15-56.847,8.929-11.77,18.762-14.983,19.176-15.114Z" transform="translate(-17.201 -34.487)" fill="#00665a"/>
      <g id="Group_1" data-name="Group 1" transform="translate(10.639 32.088)">
        <path id="Path_26" data-name="Path 26" d="M74.991,66.576c-1.517.445-15.171,4.792-27.455,20.283a81,81,0,0,0-7.745,25.4c-1.728,15.319.957,29.774,6.981,41.09-.479-22.724,4.347-41.31,14.223-54.327,8.929-11.77,18.762-14.983,19.176-15.114Z" transform="translate(-39.274 -66.575)" fill="#00554b"/>
        <path id="Path_27" data-name="Path 27" d="M200.967,83.934l5.09-17.359c1.517.445,15.171,4.792,27.456,20.283a64.446,64.446,0,0,1,7.745,25.4c1.188,15.37-.957,29.774-6.981,41.09.479-22.724-4.347-41.31-14.223-54.327-8.929-11.77-18.762-14.983-19.176-15.114Z" transform="translate(-122.988 -66.575)" fill="#00554b"/>
      </g>
      <path id="Path_28" data-name="Path 28" d="M159.09,161.071V82.883a45.761,45.761,0,0,0-45.626-45.626h0A45.761,45.761,0,0,0,67.837,82.883v78.188a14.874,14.874,0,0,0,14.874,14.874h61.505A14.874,14.874,0,0,0,159.09,161.071Z" transform="translate(-43.431 -19.3)" fill="#00aa95"/>
      <g id="Group_2" data-name="Group 2" transform="translate(24.406 17.957)">
        <path id="Path_29" data-name="Path 29" d="M89.995,161.071V82.883a45.806,45.806,0,0,1,34.547-44.255,45.3,45.3,0,0,0-11.079-1.372h0A45.761,45.761,0,0,0,67.837,82.883v78.188A14.874,14.874,0,0,0,82.71,175.945h22.158A14.873,14.873,0,0,1,89.995,161.071Z" transform="translate(-67.837 -37.256)" fill="#087"/>
        <path id="Path_30" data-name="Path 30" d="M67.837,192.943v48.776A14.874,14.874,0,0,0,82.71,256.593h61.505a14.874,14.874,0,0,0,14.874-14.874V192.943Z" transform="translate(-67.837 -117.904)" fill="#087"/>
      </g>
      <path id="Path_31" data-name="Path 31" d="M67.837,241.72A14.874,14.874,0,0,0,82.71,256.593h22.158A14.874,14.874,0,0,1,89.995,241.72V192.944H67.837Z" transform="translate(-43.431 -99.948)" fill="#00665a"/>
      <path id="Path_32" data-name="Path 32" d="M153,252.322H106.766a7.236,7.236,0,0,1-7.236-7.236v-22.11a7.236,7.236,0,0,1,7.236-7.236H153a7.236,7.236,0,0,1,7.236,7.236v22.11A7.236,7.236,0,0,1,153,252.322Z" transform="translate(-59.848 -111.756)" fill="#ffe477"/>
      <g id="Group_3" data-name="Group 3" transform="translate(39.682 103.984)">
        <path id="Path_33" data-name="Path 33" d="M115.33,245.087v-22.11a7.236,7.236,0,0,1,7.236-7.236h-15.8a7.236,7.236,0,0,0-7.236,7.236v22.11a7.236,7.236,0,0,0,7.236,7.236h15.8A7.236,7.236,0,0,1,115.33,245.087Z" transform="translate(-99.53 -215.741)" fill="#ffd422"/>
        <path id="Path_34" data-name="Path 34" d="M153,215.74H106.766a7.236,7.236,0,0,0-7.236,7.236v7.236h60.7v-7.236A7.236,7.236,0,0,0,153,215.74Z" transform="translate(-99.53 -215.74)" fill="#ffd422"/>
      </g>
      <path id="Path_35" data-name="Path 35" d="M122.566,215.74h-15.8a7.236,7.236,0,0,0-7.236,7.236v7.236h15.8v-7.236A7.236,7.236,0,0,1,122.566,215.74Z" transform="translate(-59.848 -111.756)" fill="#eebf00"/>
      <path id="Path_36" data-name="Path 36" d="M159.186,250.494H116.173a2.364,2.364,0,0,1,0-4.728h43.014a2.364,2.364,0,1,1,0,4.728Z" transform="translate(-67.245 -127.311)" fill="#006d5d"/>
      <path id="Path_37" data-name="Path 37" d="M67.837,288.422v2.757A14.874,14.874,0,0,0,82.71,306.052h5.57C83.667,291.623,73.8,288.754,67.837,288.422Z" transform="translate(-43.431 -149.406)" fill="#eebf00"/>
      <path id="Path_38" data-name="Path 38" d="M235.192,288.422v2.757a14.874,14.874,0,0,1-14.874,14.874h-5.57C219.362,291.623,229.224,288.754,235.192,288.422Z" transform="translate(-119.533 -149.406)" fill="#ffd422"/>
      <path id="Path_39" data-name="Path 39" d="M113.463,66.946c-22.524,0-35.038,11.3-41.57,20.772a55.6,55.6,0,0,0-3.88,6.565c-.115,1.313-.177,2.639-.177,3.98v10.529A52.494,52.494,0,0,1,75.786,90.4c8.566-12.427,21.242-18.727,37.677-18.727,16.368,0,29.01,6.252,37.577,18.583a52.8,52.8,0,0,1,8.05,18.54V98.262c0-1.341-.062-2.668-.177-3.98a55.623,55.623,0,0,0-3.88-6.565C148.5,78.241,135.986,66.946,113.463,66.946Z" transform="translate(-43.431 -34.679)" fill="#006d5d"/>
      <path id="Path_40" data-name="Path 40" d="M71.893,89.006a55.593,55.593,0,0,0-3.88,6.565c-.115,1.313-.177,2.639-.177,3.98v10.529a52.494,52.494,0,0,1,7.949-18.39A41.229,41.229,0,0,1,96.894,75.506a46.04,46.04,0,0,1,4.538-6.083A46.621,46.621,0,0,0,71.893,89.006Z" transform="translate(-43.431 -35.962)" fill="#00665a"/>
      <path id="Path_41" data-name="Path 41" d="M157.238,27.2a4.08,4.08,0,0,1-4.08-4.08V15.8a7.64,7.64,0,1,0-15.279,0v7.322a4.08,4.08,0,1,1-8.161,0V15.8a15.8,15.8,0,0,1,31.6,0v7.322A4.081,4.081,0,0,1,157.238,27.2Z" transform="translate(-75.486)" fill="#ffd422"/>
      <g id="Group_4" data-name="Group 4" transform="translate(54.232)">
        <path id="Path_42" data-name="Path 42" d="M175.933,31.893V24.571a7.64,7.64,0,0,0-9.524-7.4,7.653,7.653,0,0,1,5.755,7.4v7.322a4.077,4.077,0,0,0,5.965,3.617A4.078,4.078,0,0,1,175.933,31.893Z" transform="translate(-148.725 -8.771)" fill="#eebf00"/>
        <path id="Path_43" data-name="Path 43" d="M133.487,23.122V15.8A15.821,15.821,0,0,1,147.4.116,15.773,15.773,0,0,0,129.719,15.8v7.322a4.077,4.077,0,0,0,5.965,3.617A4.077,4.077,0,0,1,133.487,23.122Z" transform="translate(-129.719 0)" fill="#eebf00"/>
      </g>
    </g>
  </g>
</svg>
