<svg xmlns="http://www.w3.org/2000/svg" width="24" height="27.99" viewBox="0 0 24 27.99">
  <path id="Icon_awesome-android" data-name="Icon awesome-android" d="M5.6,12.781v7.237A1.713,1.713,0,0,1,3.881,21.75,1.866,1.866,0,0,1,2,20.019V12.781a1.864,1.864,0,0,1,1.881-1.719A1.726,1.726,0,0,1,5.6,12.781Zm.675,9.813a1.846,1.846,0,0,0,1.85,1.85H9.369l.019,3.819a1.725,1.725,0,0,0,3.45,0V24.444h2.325v3.819a1.734,1.734,0,0,0,3.469,0V24.444h1.263a1.843,1.843,0,0,0,1.837-1.85V11.381H6.275Zm15.5-11.819H6.206a7.025,7.025,0,0,1,3.975-6.213L8.987,2.356a.241.241,0,1,1,.419-.237l1.212,2.225a8.444,8.444,0,0,1,6.769,0l1.206-2.219a.241.241,0,1,1,.419.237l-1.194,2.2A7.041,7.041,0,0,1,21.775,10.775ZM11.106,7.306a.656.656,0,0,0-.656-.656.657.657,0,0,0,0,1.313A.656.656,0,0,0,11.106,7.306Zm7.088,0a.647.647,0,1,0-.638.656A.652.652,0,0,0,18.194,7.306Zm5.925,3.756A1.714,1.714,0,0,0,22.4,12.781v7.237a1.724,1.724,0,0,0,1.719,1.731A1.861,1.861,0,0,0,26,20.019V12.781A1.851,1.851,0,0,0,24.119,11.063Z" transform="translate(-2 -1.996)" fill="#fdbd15"/>
</svg>
