<svg xmlns="http://www.w3.org/2000/svg" width="31.5" height="31.5" viewBox="0 0 31.5 31.5">
  <path id="Icon_awesome-bootstrap" data-name="Icon awesome-bootstrap" d="M20.552,21.933a2.8,2.8,0,0,1-3.088,2.913H11.777V19.1h5.688c2.993,0,3.088,2.243,3.088,2.831Zm-3.526-5.142a2.526,2.526,0,0,0,2.7-2.553c0-1.091-.247-2.522-2.7-2.522h-5.25v5.075ZM31.5,7.5v21a5.266,5.266,0,0,1-5.25,5.25h-21A5.266,5.266,0,0,1,0,28.5V7.5A5.266,5.266,0,0,1,5.25,2.25h21A5.266,5.266,0,0,1,31.5,7.5ZM23.769,22.35c0-1.517-.468-4.1-3.449-4.736v-.051a4.028,4.028,0,0,0,2.625-3.912c0-.492.141-4.555-5.456-4.555H8.56V27.47c9.016,0,9.835.118,11.5-.4a4.726,4.726,0,0,0,3.706-4.719Z" transform="translate(0 -2.25)" fill="#fff"/>
</svg>
