<svg xmlns="http://www.w3.org/2000/svg" width="36" height="13.303" viewBox="0 0 36 13.303">
  <path id="Icon_simple-dot-net" data-name="Icon simple-dot-net" d="M4.751,11.348V24.472H6.285V14.984a13.468,13.468,0,0,0-.073-1.8h.058a4.362,4.362,0,0,0,.418.821l6.746,10.466h1.885V11.348H13.786v9.229a13.886,13.886,0,0,0,.093,1.929h-.035q-.122-.238-.533-.878L6.745,11.348Zm13.973,0V24.472H25.7l.007-1.44H20.292v-4.55h4.737V17.1H20.292V12.737h5.083V11.348Zm8.156,0v1.389h3.772V24.472h1.532V12.737H36V11.348ZM.98,22.6A.964.964,0,0,0,.3,22.91a1.008,1.008,0,0,0-.3.72.993.993,0,0,0,.3.72.972.972,0,0,0,.72.3.993.993,0,0,0,.72-.3.986.986,0,0,0,.3-.72,1,1,0,0,0-.3-.72.986.986,0,0,0-.72-.309H.98Z" transform="translate(0 -11.348)" fill="#fdbd15"/>
</svg>
