<svg xmlns="http://www.w3.org/2000/svg" width="38" height="14.042" viewBox="0 0 38 14.042">
  <path id="Icon_simple-dot-net" data-name="Icon simple-dot-net" d="M5.015,11.979V25.831H6.634V15.817a14.217,14.217,0,0,0-.077-1.9h.061a4.6,4.6,0,0,0,.441.867l7.121,11.048h1.99V11.979H14.551V21.72a14.658,14.658,0,0,0,.1,2.036h-.037q-.129-.251-.563-.926L7.119,11.979Zm14.749,0V25.831h7.363l.008-1.52H21.42v-4.8h5V18.05h-5v-4.6h5.365V11.979Zm8.609,0v1.466h3.982V25.831h1.618V13.445H38V11.979ZM1.035,23.856a1.018,1.018,0,0,0-.723.326,1.064,1.064,0,0,0-.312.76,1.049,1.049,0,0,0,.312.76,1.026,1.026,0,0,0,.76.319,1.049,1.049,0,0,0,.76-.319,1.041,1.041,0,0,0,.319-.76,1.056,1.056,0,0,0-.319-.76,1.041,1.041,0,0,0-.76-.326H1.034Z" transform="translate(0 -11.979)" fill="#fff"/>
</svg>
