<svg xmlns="http://www.w3.org/2000/svg" xmlns:xlink="http://www.w3.org/1999/xlink" width="138.963" height="119.767" viewBox="0 0 138.963 119.767">
  <defs>
    <linearGradient id="linear-gradient" x1="0.383" y1="0.5" x2="0.52" y2="0.5" gradientUnits="objectBoundingBox">
      <stop offset="0" stop-color="#cc8241"/>
      <stop offset="1" stop-color="#dea861"/>
    </linearGradient>
    <linearGradient id="linear-gradient-2" x1="0.003" y1="-0.006" x2="0.8" y2="0.804" gradientUnits="objectBoundingBox">
      <stop offset="0" stop-color="#dea861"/>
      <stop offset="0.328" stop-color="#e3b67b"/>
      <stop offset="0.752" stop-color="#e9c596"/>
      <stop offset="1" stop-color="#ebcba0"/>
    </linearGradient>
    <linearGradient id="linear-gradient-3" x1="0.642" y1="0.5" x2="0.179" y2="0.5" xlink:href="#linear-gradient"/>
  </defs>
  <g id="open" transform="translate(-0.001 -35.365)">
    <path id="Path_135" data-name="Path 135" d="M186.986,234.5v-52.87l-84.858,3.639v52.87a3.563,3.563,0,0,0,1.8,3.115l33.616,19.408a7.727,7.727,0,0,0,7.727,0l39.918-23.047A3.562,3.562,0,0,0,186.986,234.5Z" transform="translate(-74.408 -106.57)" fill="url(#linear-gradient)"/>
    <path id="Path_136" data-name="Path 136" d="M136.882,87.842,116.891,76.3a.992.992,0,0,1,0-1.716l20.281-11.855a3.6,3.6,0,0,0,.1-6.17L104.957,36.525a7.727,7.727,0,0,0-7.935-.125L76.661,48.3a5.975,5.975,0,0,1-6,.016L50.305,36.564a8.951,8.951,0,0,0-9.192.145L3.689,59.916A4.166,4.166,0,0,0,3.8,67.064l18.7,10.8a.992.992,0,0,1,0,1.718L1.8,91.591a3.6,3.6,0,0,0,0,6.229l33.617,19.409a7.727,7.727,0,0,0,7.727,0l19.6-11.375a5.976,5.976,0,0,1,5.987-.007l20.255,11.694a8.951,8.951,0,0,0,8.951,0l38.942-22.483a4.166,4.166,0,0,0,0-7.216Z" transform="translate(0)" fill="url(#linear-gradient-2)"/>
    <path id="Path_137" data-name="Path 137" d="M103.927,118.919l39.918-23.047a7.727,7.727,0,0,1,7.727,0l33.616,19.408a3.6,3.6,0,0,1,0,6.23l-39.918,23.047a7.727,7.727,0,0,1-7.727,0l-33.616-19.408a3.6,3.6,0,0,1,0-6.23Z" transform="translate(-74.409 -43.33)" fill="url(#linear-gradient-3)"/>
    <g id="Group_15" data-name="Group 15" transform="translate(102.196 116.082)">
      <path id="Path_138" data-name="Path 138" d="M384.072,338.419l-3.771-5.656-3.771,10.01,1.986-1.147v3.391l3.57-2.061v-3.391Z" transform="translate(-376.53 -332.763)" fill="#5d3645"/>
      <path id="Path_139" data-name="Path 139" d="M384.072,369.233l-7.542,4.354v1.834l7.542-4.354Z" transform="translate(-376.53 -359.335)" fill="#5d3645"/>
    </g>
  </g>
</svg>
