<svg xmlns="http://www.w3.org/2000/svg" width="35.98" height="35.982" viewBox="0 0 35.98 35.982">
  <path id="Icon_simple-gatsby" data-name="Icon simple-gatsby" d="M18,.01A17.894,17.894,0,0,0,.01,18,17.9,17.9,0,0,0,18,35.993,17.9,17.9,0,0,0,35.991,18,17.893,17.893,0,0,0,18,.01ZM3.921,18.157,17.846,32.082A13.955,13.955,0,0,1,3.921,18.158ZM21.13,31.768l-16.9-16.9A14.14,14.14,0,0,1,29.421,9.711L27.389,11.43a11.486,11.486,0,0,0-9.543-5.005,11.332,11.332,0,0,0-10.8,7.665L21.756,28.8a11.143,11.143,0,0,0,7.2-8.136h-6.1V18h9.231A14.1,14.1,0,0,1,21.131,31.769Z" transform="translate(-0.01 -0.01)" fill="#fff"/>
</svg>
