<svg xmlns="http://www.w3.org/2000/svg" width="27.125" height="26.447" viewBox="0 0 27.125 26.447">
  <path id="Icon_awesome-github" data-name="Icon awesome-github" d="M9.073,21.733c0,.109-.126.2-.284.2-.18.016-.306-.071-.306-.2,0-.109.126-.2.284-.2C8.93,21.52,9.073,21.607,9.073,21.733Zm-1.7-.246c-.038.109.071.235.235.268a.257.257,0,0,0,.339-.109c.033-.109-.071-.235-.235-.284a.281.281,0,0,0-.339.126Zm2.417-.093c-.159.038-.268.142-.252.268.016.109.159.18.323.142s.268-.142.252-.252S9.948,21.377,9.789,21.394ZM13.387.438A13.114,13.114,0,0,0,0,13.781,13.711,13.711,0,0,0,9.27,26.862c.7.126.946-.306.946-.662,0-.339-.016-2.209-.016-3.358,0,0-3.828.82-4.632-1.63,0,0-.623-1.591-1.52-2,0,0-1.252-.859.088-.842A2.887,2.887,0,0,1,6.245,19.78a2.891,2.891,0,0,0,3.987,1.143,3.039,3.039,0,0,1,.875-1.843c-3.057-.339-6.141-.782-6.141-6.043A4.145,4.145,0,0,1,6.256,9.816,5.167,5.167,0,0,1,6.4,6.1c1.143-.355,3.773,1.477,3.773,1.477a12.919,12.919,0,0,1,6.869,0s2.63-1.838,3.773-1.477a5.165,5.165,0,0,1,.142,3.713,4.251,4.251,0,0,1,1.411,3.221c0,5.277-3.221,5.7-6.278,6.043a3.234,3.234,0,0,1,.93,2.538c0,1.843-.016,4.123-.016,4.572,0,.355.252.788.946.662a13.584,13.584,0,0,0,9.177-13.07A13.409,13.409,0,0,0,13.387.438ZM5.316,19.3c-.071.055-.055.18.038.284.088.087.213.126.284.055.071-.055.055-.18-.038-.284C5.513,19.266,5.387,19.228,5.316,19.3Zm-.591-.443c-.038.071.016.159.126.213a.163.163,0,0,0,.235-.038c.038-.071-.016-.159-.126-.213C4.851,18.785,4.763,18.8,4.725,18.856ZM6.5,20.8c-.088.071-.055.235.071.339.126.126.284.142.355.055.071-.071.038-.235-.071-.339C6.732,20.732,6.568,20.716,6.5,20.8ZM5.873,20c-.088.055-.088.2,0,.323s.235.18.306.126a.249.249,0,0,0,0-.339c-.077-.126-.219-.18-.306-.109Z" transform="translate(0 -0.438)" fill="#fff"/>
</svg>
