<svg xmlns="http://www.w3.org/2000/svg" width="30.4" height="29.641" viewBox="0 0 30.4 29.641">
  <path id="Icon_awesome-github" data-name="Icon awesome-github" d="M10.168,24.429c0,.123-.141.221-.319.221-.2.018-.343-.08-.343-.221,0-.123.141-.221.319-.221C10.009,24.19,10.168,24.288,10.168,24.429Zm-1.906-.276c-.043.123.08.264.264.3a.287.287,0,0,0,.38-.123c.037-.123-.08-.264-.264-.319A.315.315,0,0,0,8.262,24.153Zm2.709-.1c-.178.043-.3.159-.282.3.018.123.178.2.362.159s.3-.159.282-.282S11.149,24.031,10.971,24.049ZM15,.562A14.7,14.7,0,0,0,0,15.518,15.366,15.366,0,0,0,10.389,30.178c.785.141,1.06-.343,1.06-.742,0-.38-.018-2.476-.018-3.763,0,0-4.29.919-5.191-1.826,0,0-.7-1.784-1.7-2.243,0,0-1.4-.962.1-.944A3.235,3.235,0,0,1,7,22.241a3.24,3.24,0,0,0,4.468,1.281,3.407,3.407,0,0,1,.981-2.066c-3.426-.38-6.883-.876-6.883-6.773a4.645,4.645,0,0,1,1.446-3.61,5.791,5.791,0,0,1,.159-4.162c1.281-.4,4.229,1.655,4.229,1.655a14.479,14.479,0,0,1,7.7,0s2.948-2.059,4.229-1.655a5.788,5.788,0,0,1,.159,4.162,4.764,4.764,0,0,1,1.581,3.61c0,5.915-3.61,6.387-7.036,6.773A3.625,3.625,0,0,1,19.074,24.3c0,2.066-.018,4.621-.018,5.124,0,.4.282.883,1.06.742A15.225,15.225,0,0,0,30.4,15.518C30.4,7.016,23.505.562,15,.562ZM5.957,21.7c-.08.061-.061.2.043.319.1.1.239.141.319.061.08-.061.061-.2-.043-.319C6.178,21.665,6.037,21.622,5.957,21.7Zm-.662-.5c-.043.08.018.178.141.239A.182.182,0,0,0,5.7,21.4c.043-.08-.018-.178-.141-.239C5.437,21.126,5.338,21.144,5.3,21.205Zm1.986,2.182c-.1.08-.061.264.08.38.141.141.319.159.4.061.08-.08.043-.264-.08-.38C7.545,23.308,7.361,23.289,7.281,23.387Zm-.7-.9c-.1.061-.1.221,0,.362s.264.2.343.141a.28.28,0,0,0,0-.38C6.84,22.468,6.681,22.407,6.583,22.486Z" transform="translate(0 -0.563)" fill="#fdbd15"/>
</svg>
