<svg xmlns="http://www.w3.org/2000/svg" width="31.844" height="31.048" viewBox="0 0 31.844 31.048">
  <path id="Icon_awesome-github" data-name="Icon awesome-github" d="M10.651,25.562c0,.128-.148.231-.334.231-.212.019-.36-.083-.36-.231,0-.128.148-.231.334-.231C10.484,25.312,10.651,25.415,10.651,25.562Zm-2-.289c-.045.128.083.276.276.315a.3.3,0,0,0,.4-.128c.039-.128-.083-.276-.276-.334A.33.33,0,0,0,8.654,25.274Zm2.838-.109c-.186.045-.315.167-.3.315.019.128.186.212.379.167s.315-.167.3-.3S11.678,25.145,11.492,25.164ZM15.716.563A15.4,15.4,0,0,0,0,16.228,16.1,16.1,0,0,0,10.882,31.584c.822.148,1.111-.36,1.111-.777,0-.4-.019-2.594-.019-3.942,0,0-4.494.963-5.438-1.913,0,0-.732-1.868-1.785-2.35,0,0-1.47-1.008.1-.989A3.389,3.389,0,0,1,7.332,23.27a3.394,3.394,0,0,0,4.68,1.342,3.568,3.568,0,0,1,1.027-2.164c-3.589-.4-7.21-.918-7.21-7.094a4.866,4.866,0,0,1,1.515-3.781,6.066,6.066,0,0,1,.167-4.359c1.342-.417,4.43,1.733,4.43,1.733a15.167,15.167,0,0,1,8.064,0s3.088-2.157,4.43-1.733a6.063,6.063,0,0,1,.167,4.359,4.991,4.991,0,0,1,1.656,3.781c0,6.2-3.781,6.69-7.37,7.094a3.8,3.8,0,0,1,1.091,2.979c0,2.164-.019,4.841-.019,5.367,0,.417.3.924,1.111.777A15.948,15.948,0,0,0,31.844,16.228C31.844,7.323,24.621.563,15.716.563ZM6.24,22.705c-.083.064-.064.212.045.334.1.1.25.148.334.064.083-.064.064-.212-.045-.334C6.471,22.667,6.324,22.622,6.24,22.705Zm-.693-.52c-.045.083.019.186.148.25a.191.191,0,0,0,.276-.045c.045-.083-.019-.186-.148-.25C5.695,22.1,5.592,22.121,5.547,22.185Zm2.08,2.286c-.1.083-.064.276.083.4.148.148.334.167.417.064.083-.083.045-.276-.083-.4C7.9,24.388,7.711,24.368,7.627,24.471ZM6.9,23.527c-.1.064-.1.231,0,.379s.276.212.36.148a.293.293,0,0,0,0-.4C7.165,23.508,7,23.444,6.9,23.527Z" transform="translate(0 -0.563)" fill="#fdbd15"/>
</svg>
