<svg xmlns="http://www.w3.org/2000/svg" width="30.51" height="30.503" viewBox="0 0 30.51 30.503">
  <path id="Icon_awesome-instagram" data-name="Icon awesome-instagram" d="M15.253,9.669a7.821,7.821,0,1,0,7.821,7.821A7.808,7.808,0,0,0,15.253,9.669Zm0,12.905a5.084,5.084,0,1,1,5.084-5.084,5.094,5.094,0,0,1-5.084,5.084ZM25.218,9.349a1.824,1.824,0,1,1-1.824-1.824A1.82,1.82,0,0,1,25.218,9.349ZM30.4,11.2a9.027,9.027,0,0,0-2.464-6.391,9.086,9.086,0,0,0-6.391-2.464c-2.518-.143-10.067-.143-12.585,0A9.073,9.073,0,0,0,2.566,4.8,9.057,9.057,0,0,0,.1,11.193C-.041,13.712-.041,21.26.1,23.778A9.027,9.027,0,0,0,2.566,30.17a9.1,9.1,0,0,0,6.391,2.464c2.518.143,10.067.143,12.585,0a9.027,9.027,0,0,0,6.391-2.464A9.087,9.087,0,0,0,30.4,23.778c.143-2.518.143-10.06,0-12.578Zm-3.253,15.28a5.148,5.148,0,0,1-2.9,2.9c-2.008.8-6.772.613-8.991.613s-6.99.177-8.991-.613a5.148,5.148,0,0,1-2.9-2.9c-.8-2.008-.613-6.772-.613-8.991S2.573,10.5,3.362,8.5a5.148,5.148,0,0,1,2.9-2.9c2.008-.8,6.772-.613,8.991-.613s6.99-.177,8.991.613a5.148,5.148,0,0,1,2.9,2.9c.8,2.008.613,6.772.613,8.991S27.94,24.479,27.144,26.481Z" transform="translate(0.005 -2.238)" fill="#fdbd15"/>
</svg>
