<svg xmlns="http://www.w3.org/2000/svg" width="26" height="26" viewBox="0 0 26 26">
  <g id="surface4876500" transform="translate(-4 -4)">
    <path id="Path_79" data-name="Path 79" d="M4,4V30H30V4ZM7.575,16.188H9.2V9.2H7.575V7.088H13.1V9.2H11.475v6.988H13.1V18.3H7.575ZM16.35,26.425H6.6V24.8h9.75ZM22.2,14.237c0,1.462-.325,4.225-3.9,4.225a4.326,4.326,0,0,1-3.413-1.653l1.5-1.714A2.7,2.7,0,0,0,18.3,16.188c1.463,0,1.463-1.463,1.463-1.95V7.088H22.2Zm0,0" transform="translate(0 0)" fill="#f1c40f"/>
  </g>
</svg>
