<svg xmlns="http://www.w3.org/2000/svg" width="24.684" height="33.438" viewBox="0 0 24.684 33.438">
  <path id="Icon_awesome-java" data-name="Icon awesome-java" d="M18.031,20.166a10.509,10.509,0,0,1,1.518-.806s-2.51.451-5.007.657a45.91,45.91,0,0,1-7.985.084c-3.9-.516,2.14-1.94,2.14-1.94a11.552,11.552,0,0,0-5.228,1.225C.064,21.023,11.9,21.77,18.031,20.166ZM12.492,18.1c-1.232-2.752-5.39-5.169,0-9.4C19.216,3.429,15.767,0,15.767,0c1.395,5.446-4.9,7.1-7.18,10.479-1.55,2.314.759,4.795,3.9,7.618ZM19.925,6.741c.006,0-11.364,2.823-5.935,9.036,1.6,1.83-.422,3.48-.422,3.48s4.067-2.088,2.2-4.7c-1.745-2.436-3.081-3.648,4.158-7.818Zm-.4,17.433a.786.786,0,0,1-.13.168c8.322-2.172,5.26-7.663,1.284-6.271a1.123,1.123,0,0,0-.532.406,4.593,4.593,0,0,1,.713-.193c2.011-.419,4.9,2.675-1.336,5.891Zm3.059,4.015s.941.767-1.031,1.366C17.8,30.684,5.938,31.025,2.643,29.6c-1.187-.509,1.038-1.225,1.738-1.373A4.735,4.735,0,0,1,5.529,28.1c-1.317-.922-8.517,1.811-3.658,2.591C15.119,32.83,26.026,29.73,22.588,28.189Zm-14.5-2.668c-5.1,1.418,3.107,4.344,9.606,1.579a12.09,12.09,0,0,1-1.829-.889,19.1,19.1,0,0,1-6.875.29c-2.173-.245-.9-.98-.9-.98ZM19.75,31.786a49.478,49.478,0,0,1-15.133.232c0-.006.765.625,4.7.876,5.98.38,15.165-.213,15.379-3.023,0,0-.415,1.063-4.943,1.914ZM16.922,22.75a26.965,26.965,0,0,1-8.873.425c-2.173-.226-.752-1.27-.752-1.27-5.63,1.856,3.126,3.957,10.994,1.669a3.92,3.92,0,0,1-1.369-.825Z" transform="translate(-0.108 0.327)" fill="#fdbd15" stroke="#fdbd15" stroke-width="0.2"/>
</svg>
