<svg xmlns="http://www.w3.org/2000/svg" width="31.5" height="31.5" viewBox="0 0 31.5 31.5">
  <path id="Icon_awesome-js" data-name="Icon awesome-js" d="M0,2.25v31.5H31.5V2.25ZM17.142,26.817c0,3.066-1.8,4.465-4.423,4.465a4.6,4.6,0,0,1-4.444-2.707l2.412-1.455c.464.823.886,1.519,1.905,1.519.97,0,1.589-.38,1.589-1.863V16.713h2.96Zm7,4.465a5.681,5.681,0,0,1-5.393-3.023l2.412-1.392a3.23,3.23,0,0,0,2.918,1.8c1.223,0,2.011-.612,2.011-1.462,0-1.013-.8-1.371-2.159-1.969l-.738-.316c-2.138-.907-3.551-2.053-3.551-4.465,0-2.222,1.695-3.909,4.331-3.909a4.36,4.36,0,0,1,4.2,2.37l-2.306,1.477a2.013,2.013,0,0,0-1.905-1.266,1.285,1.285,0,0,0-1.413,1.266c0,.886.548,1.245,1.821,1.8l.738.316c2.517,1.076,3.93,2.18,3.93,4.655,0,2.658-2.1,4.12-4.9,4.12Z" transform="translate(0 -2.25)" fill="#fdfdfd"/>
</svg>
