<svg xmlns="http://www.w3.org/2000/svg" width="26.09" height="26.09" viewBox="0 0 26.09 26.09">
  <path id="Icon_simple-javascript" data-name="Icon simple-javascript" d="M0,0H26.09V26.09H0ZM23.953,19.868c-.19-1.19-.965-2.19-3.265-3.123-.8-.375-1.689-.636-1.954-1.239a1.284,1.284,0,0,1-.05-.766,1.246,1.246,0,0,1,1.647-.717A1.768,1.768,0,0,1,21.393,15c1.124-.735,1.124-.735,1.908-1.223a4.487,4.487,0,0,0-.637-.848A3.651,3.651,0,0,0,19.583,11.8l-.766.1a3.5,3.5,0,0,0-1.859,1.093,3.411,3.411,0,0,0,.619,4.86c1.484,1.109,3.654,1.352,3.931,2.4.261,1.272-.946,1.68-2.137,1.533a2.862,2.862,0,0,1-1.908-1.452l-1.989,1.143a4.4,4.4,0,0,0,.881,1.206c1.892,1.909,6.62,1.811,7.469-1.091a3.679,3.679,0,0,0,.08-1.794l.05.073Zm-9.765-7.876H11.744c0,2.107-.01,4.2-.01,6.311a10.293,10.293,0,0,1-.15,2.947c-.359.749-1.283.653-1.7.522a2.1,2.1,0,0,1-.9-.929.933.933,0,0,0-.138-.213L6.857,21.852A3.845,3.845,0,0,0,8.3,23.5a4.784,4.784,0,0,0,3.486.44,3.053,3.053,0,0,0,1.969-1.534,7.534,7.534,0,0,0,.432-3.637c.013-2.233,0-4.467,0-6.717l0-.061Z" fill="#fdbd15"/>
</svg>
