<svg xmlns="http://www.w3.org/2000/svg" width="30.588" height="30.588" viewBox="0 0 30.588 30.588">
  <path id="Icon_awesome-linkedin-in" data-name="Icon awesome-linkedin-in" d="M6.847,30.588H.505V10.167H6.847ZM3.673,7.381A3.69,3.69,0,1,1,7.345,3.673,3.7,3.7,0,0,1,3.673,7.381ZM30.581,30.588H24.254V20.647c0-2.369-.048-5.408-3.3-5.408-3.3,0-3.8,2.574-3.8,5.237V30.588H10.819V10.167H16.9v2.786h.089a6.664,6.664,0,0,1,6-3.3c6.418,0,7.6,4.226,7.6,9.716V30.588Z" transform="translate(0 -0.001)" fill="#fdbd15"/>
</svg>
