<svg xmlns="http://www.w3.org/2000/svg" width="25.537" height="29.279" viewBox="0 0 25.537 29.279">
  <g id="surface4750898" transform="translate(-5.998 -2.988)">
    <path id="Path_60" data-name="Path 60" d="M20.4,9.269A11.454,11.454,0,0,1,18.83,3.915c-3.143.678-6.263,1.9-6.085,2.8.024.112.166.249.4.379l-.37.663A1.377,1.377,0,0,1,12,6.86c-.2-1.015.947-1.936,3.516-2.812a31.964,31.964,0,0,1,3.6-.968l.453-.092v.465a11.4,11.4,0,0,0,1.45,5.4Zm0,0" transform="translate(-2.036)" fill="#fdbd15"/>
    <path id="Path_61" data-name="Path 61" d="M20.207,37.882h-.189c-6.207,0-13.115-1.951-13.932-5.212-.5-1.992,1.131-4.194,4.709-6.367l.394.648C7.968,28.9,6.417,30.87,6.822,32.486c.707,2.833,7.254,4.6,13,4.638a19.167,19.167,0,0,0,2.258-15.06l.731-.189a19.846,19.846,0,0,1-2.486,15.853Zm0,0" transform="translate(0 -5.615)" fill="#fdbd15"/>
    <path id="Path_62" data-name="Path 62" d="M9.632,35.861a2.822,2.822,0,0,1-.642-.053.375.375,0,0,1-.275-.266.382.382,0,0,1,.1-.37c.056-.053,5.455-5.461,6.183-9.832l.746.124c-.627,3.762-4.33,8.048-5.8,9.628,1.471-.083,5.18-.773,12.3-4.759-5.559-.61-6.438-5.058-6.446-5.106l.746-.136c.036.186.929,4.555,7,4.555h.009a.378.378,0,0,1,.189.7C15.229,35.283,11.1,35.861,9.632,35.861Zm0,0" transform="translate(-0.655 -6.394)" fill="#fdbd15"/>
    <path id="Path_63" data-name="Path 63" d="M12.617,37.19A.378.378,0,0,1,12.4,36.5,13.114,13.114,0,0,0,15.2,33.3a15.633,15.633,0,0,1-1.663-.861,6.3,6.3,0,0,1-1.56-1.282,15.956,15.956,0,0,1-5.325.583l.065-.755A14.976,14.976,0,0,0,11.51,30.5a4.4,4.4,0,0,1-.083-4.087l.663.37a3.5,3.5,0,0,0,.189,3.51,31.3,31.3,0,0,0,5.286-2.107A24.5,24.5,0,0,0,18.5,23.43a.379.379,0,0,1,.186-.29.383.383,0,0,1,.349-.018c.024.012,2.471,1.131,4.244,1.862a.374.374,0,0,1,.234.311.378.378,0,0,1-.163.352,47.565,47.565,0,0,1-5.138,3.063,20.607,20.607,0,0,1-1.862,4.235,16.894,16.894,0,0,0,5.271,1.063.379.379,0,0,1,.184.71c-3.439,1.912-8.915,2.451-9.149,2.471Zm3.324-3.584A15.929,15.929,0,0,1,13.8,36.278a28.858,28.858,0,0,0,6.372-1.619A18,18,0,0,1,15.941,33.606ZM12.8,30.924a5.738,5.738,0,0,0,1.131.864,14.34,14.34,0,0,0,1.681.861,19.785,19.785,0,0,0,1.622-3.463A31.141,31.141,0,0,1,12.8,30.924Zm6.393-6.9A26.065,26.065,0,0,1,18.5,27.7c1.258-.672,2.542-1.438,3.836-2.294C21.162,24.913,19.872,24.336,19.194,24.028Zm0,0" transform="translate(-0.16 -5.909)" fill="#fdbd15"/>
    <path id="Path_64" data-name="Path 64" d="M16.958,9.341a.391.391,0,0,1-.249-.092,20.033,20.033,0,0,1-2.714-3.259.378.378,0,0,1,.494-.545,40.043,40.043,0,0,0,5.47,1.083.381.381,0,0,1,.219.627,8.809,8.809,0,0,1-3.087,2.158A.356.356,0,0,1,16.958,9.341ZM15.232,6.42a16.6,16.6,0,0,0,1.8,2.1,8.552,8.552,0,0,0,2.078-1.362C17.15,6.822,15.957,6.583,15.232,6.42Zm0,0" transform="translate(-2.602 -0.584)" fill="#fdbd15"/>
    <path id="Path_65" data-name="Path 65" d="M20.671,21.23a.4.4,0,0,1-.154-.03.38.38,0,0,1-.222-.388c.219-2.084-2.975-2.918-3.007-2.927a.377.377,0,0,1-.175-.633,31.491,31.491,0,0,1,8.58-5.9.38.38,0,0,1,.391.053.385.385,0,0,1,.133.37c-.9,4.354-5.085,9.128-5.263,9.326A.385.385,0,0,1,20.671,21.23ZM18.1,17.356c.9.337,2.471,1.119,2.868,2.542a24.812,24.812,0,0,0,4.315-7.527A31.809,31.809,0,0,0,18.1,17.356Zm0,0" transform="translate(-3.755 -2.341)" fill="#fdbd15"/>
    <path id="Path_66" data-name="Path 66" d="M12.915,23.947l-.309-.666a14.482,14.482,0,0,0,3.8-3.83c-.984.781-1.546,1.314-1.564,1.332L14.42,20.2a31.065,31.065,0,0,1,3.031-2.439,11.346,11.346,0,0,0,1.114-2.892c.033-.163.064-.317.089-.468a15.55,15.55,0,0,0-3.22-.962.338.338,0,0,1-.263-.249.424.424,0,0,1,.069-.382,11.64,11.64,0,0,1,3.044-2.625.3.3,0,0,1,.381.086,5.231,5.231,0,0,1,.713,3.641,16.944,16.944,0,0,1,2.285,1.249A26.017,26.017,0,0,1,27.7,12.865a.307.307,0,0,1,.314.127.422.422,0,0,1,.054.379,19.753,19.753,0,0,1-3.228,5.337.313.313,0,0,1-.25.112.323.323,0,0,1-.24-.142,10.607,10.607,0,0,0-2.722-2.67,34.946,34.946,0,0,0-3.718,2.309A16.409,16.409,0,0,1,12.915,23.947Zm9.43-8.308a11.347,11.347,0,0,1,2.28,2.235A20.279,20.279,0,0,0,27.2,13.765,25.764,25.764,0,0,0,22.345,15.639Zm-3.069-.965c-.023.124-.049.252-.074.379a10.811,10.811,0,0,1-.636,1.942c.716-.474,1.51-.965,2.366-1.438A15.5,15.5,0,0,0,19.276,14.674Zm-3.11-1.856a17.078,17.078,0,0,1,2.579.823,4.935,4.935,0,0,0-.422-2.631A10.82,10.82,0,0,0,16.165,12.818Zm0,0" transform="translate(-1.601 -2.076)" fill="#fdbd15"/>
    <path id="Path_67" data-name="Path 67" d="M16.061,16.019c0,3.318-2.767,5.955-4.759,7.879a3.2,3.2,0,0,1-1.462.379c.281-.287.6-.589.938-.915,1.894-1.835,4.526-4.342,4.526-7.343a7.4,7.4,0,0,0-2.56-6.076,5.381,5.381,0,0,1-1.184-1.583l.237-.1.778.34a6.383,6.383,0,0,0,.7.8A8.168,8.168,0,0,1,16.061,16.019Zm0,0" transform="translate(-0.931 -1.278)" fill="#fdbd15"/>
    <path id="Path_68" data-name="Path 68" d="M32.008,16.723s-.416.065-.532.08a61.5,61.5,0,0,0-15.8,4.215,29.526,29.526,0,0,0-3.839,2.03c-.005.006-.013.006-.027.015-.715.456-2.455,1.394-3.866,2.22,2.063-2.418,5.929-4.28,7.468-4.964a62.32,62.32,0,0,1,15.371-4.188,13.922,13.922,0,0,0-5.735-4.2,36.138,36.138,0,0,0-7.543-1.72c-4.169-.66-6.541-1.1-6.767-2.347a1.247,1.247,0,0,1,.089-.743,2.965,2.965,0,0,0,.763.864,2.317,2.317,0,0,0,.207.136l.005.006c.978.568,3.61.986,5.805,1.335A36.8,36.8,0,0,1,25.3,11.22c4.725,2.007,6.356,4.878,6.423,5S32.008,16.723,32.008,16.723Zm0,0" transform="translate(-0.473 -1.001)" fill="#fdbd15"/>
  </g>
</svg>
