<svg xmlns="http://www.w3.org/2000/svg" width="29.274" height="31.712" viewBox="0 0 29.274 31.712">
  <g id="surface4947836" transform="translate(-5.998 -2.988)">
    <path id="Path_69" data-name="Path 69" d="M20.783,9.558a11.981,11.981,0,0,1-1.638-5.6c-3.288.709-6.551,1.985-6.365,2.926.025.118.173.26.421.4l-.387.694a1.44,1.44,0,0,1-.808-.935C11.792,5.976,13,5.013,15.683,4.1a33.434,33.434,0,0,1,3.765-1.012l.474-.1v.486a11.926,11.926,0,0,0,1.517,5.644Zm0,0" transform="translate(-1.241)" fill="#fff"/>
    <path id="Path_70" data-name="Path 70" d="M20.86,38.618h-.2c-6.492,0-13.718-2.04-14.573-5.452-.52-2.084,1.183-4.387,4.926-6.659l.412.678c-3.368,2.043-4.991,4.1-4.567,5.79.74,2.963,7.588,4.808,13.595,4.851a20.049,20.049,0,0,0,2.362-15.752l.765-.2a20.759,20.759,0,0,1-2.6,16.582Zm0,0" transform="translate(0 -3.918)" fill="#fff"/>
    <path id="Path_71" data-name="Path 71" d="M9.675,36.356A2.953,2.953,0,0,1,9,36.3a.392.392,0,0,1-.288-.279.4.4,0,0,1,.1-.387c.059-.056,5.706-5.712,6.468-10.285l.78.13C15.409,29.415,11.536,33.9,10,35.551c1.539-.087,5.418-.808,12.867-4.978-5.814-.638-6.734-5.291-6.743-5.341l.78-.142c.037.2.972,4.765,7.325,4.765h.009a.4.4,0,0,1,.2.737C15.529,35.752,11.21,36.356,9.675,36.356Zm0,0" transform="translate(-0.561 -4.584)" fill="#fff"/>
    <path id="Path_72" data-name="Path 72" d="M12.892,37.839a.4.4,0,0,1-.229-.718,13.717,13.717,0,0,0,2.935-3.35,16.353,16.353,0,0,1-1.74-.9,6.592,6.592,0,0,1-1.632-1.341,16.69,16.69,0,0,1-5.57.61l.068-.789a15.665,15.665,0,0,0,5.009-.508,4.6,4.6,0,0,1-.087-4.276l.694.387a3.66,3.66,0,0,0,.2,3.672,32.738,32.738,0,0,0,5.529-2.2,25.624,25.624,0,0,0,.972-4.975.4.4,0,0,1,.2-.3.4.4,0,0,1,.365-.019c.025.012,2.585,1.183,4.44,1.947a.391.391,0,0,1,.245.325.4.4,0,0,1-.17.368,49.754,49.754,0,0,1-5.375,3.2,21.555,21.555,0,0,1-1.947,4.43,17.672,17.672,0,0,0,5.514,1.111.4.4,0,0,1,.192.743c-3.6,2-9.325,2.563-9.57,2.585Zm3.477-3.749a16.661,16.661,0,0,1-2.242,2.8,30.186,30.186,0,0,0,6.666-1.694A18.832,18.832,0,0,1,16.368,34.09Zm-3.285-2.8a6,6,0,0,0,1.183.9,15,15,0,0,0,1.759.9,20.7,20.7,0,0,0,1.7-3.622A32.574,32.574,0,0,1,13.084,31.285Zm6.687-7.214a27.264,27.264,0,0,1-.724,3.845c1.316-.7,2.659-1.5,4.012-2.4C21.83,25,20.48,24.393,19.771,24.071Zm0,0" transform="translate(-0.137 -4.169)" fill="#fff"/>
    <path id="Path_73" data-name="Path 73" d="M17.1,9.523a.409.409,0,0,1-.26-.1A20.955,20.955,0,0,1,14,6.018a.4.4,0,0,1,.517-.57,41.886,41.886,0,0,0,5.721,1.133.4.4,0,0,1,.229.656,9.215,9.215,0,0,1-3.229,2.257A.373.373,0,0,1,17.1,9.523Zm-1.8-3.056a17.362,17.362,0,0,0,1.879,2.2,8.945,8.945,0,0,0,2.173-1.424C17.3,6.888,16.051,6.637,15.292,6.467Zm0,0" transform="translate(-1.645 -0.5)" fill="#fff"/>
    <path id="Path_74" data-name="Path 74" d="M20.839,21.686a.414.414,0,0,1-.161-.031.4.4,0,0,1-.232-.406c.229-2.18-3.111-3.053-3.146-3.062a.395.395,0,0,1-.183-.663,32.94,32.94,0,0,1,8.975-6.17.4.4,0,0,1,.409.056.4.4,0,0,1,.139.387c-.941,4.554-5.319,9.548-5.5,9.755A.4.4,0,0,1,20.839,21.686Zm-2.687-4.053c.941.353,2.585,1.17,3,2.659a25.953,25.953,0,0,0,4.514-7.873A33.273,33.273,0,0,0,18.152,17.633Zm0,0" transform="translate(-2.283 -1.729)" fill="#fff"/>
    <path id="Path_75" data-name="Path 75" d="M12.98,24.582l-.375-.7a16.566,16.566,0,0,0,4.6-4.006c-1.192.817-1.873,1.375-1.895,1.393l-.508-.61a37.069,37.069,0,0,1,3.672-2.551,10.939,10.939,0,0,0,1.35-3.025c.04-.17.077-.331.108-.489a21.144,21.144,0,0,0-3.9-1.006.391.391,0,0,1-.319-.26.4.4,0,0,1,.084-.4,13.628,13.628,0,0,1,3.687-2.746.4.4,0,0,1,.461.09,4.916,4.916,0,0,1,.864,3.808,21.714,21.714,0,0,1,2.768,1.307,34.724,34.724,0,0,1,7.316-2.4.4.4,0,0,1,.381.133.392.392,0,0,1,.065.4,20.486,20.486,0,0,1-3.91,5.582.4.4,0,0,1-.594-.031,12.183,12.183,0,0,0-3.3-2.793,43.891,43.891,0,0,0-4.5,2.415A18.331,18.331,0,0,1,12.98,24.582ZM24.4,15.891a13.036,13.036,0,0,1,2.762,2.337,21.088,21.088,0,0,0,3.124-4.3A34.353,34.353,0,0,0,24.4,15.891Zm-3.718-1.009c-.028.13-.059.263-.09.4a10.256,10.256,0,0,1-.771,2.031c.867-.5,1.83-1.009,2.867-1.5A19.938,19.938,0,0,0,20.686,14.882Zm-3.768-1.941a23.124,23.124,0,0,1,3.124.861,4.559,4.559,0,0,0-.511-2.752A12.825,12.825,0,0,0,16.918,12.941Zm0,0" transform="translate(-1.371 -1.485)" fill="#fff"/>
    <path id="Path_76" data-name="Path 76" d="M16.348,16.376c0,3.471-2.895,6.229-4.978,8.242a3.349,3.349,0,0,1-1.529.4c.294-.3.625-.616.981-.957,1.981-1.92,4.734-4.542,4.734-7.681a7.741,7.741,0,0,0-2.678-6.356,5.629,5.629,0,0,1-1.238-1.656l.248-.1c.269.118.576.251.814.356a6.677,6.677,0,0,0,.737.839A8.543,8.543,0,0,1,16.348,16.376Zm0,0" transform="translate(-0.797 -1.094)" fill="#fff"/>
    <path id="Path_77" data-name="Path 77" d="M35.677,17.165s-.48.068-.613.084a76.621,76.621,0,0,0-18.2,4.409,35.343,35.343,0,0,0-4.424,2.124c-.006.006-.015.006-.031.015-.824.477-2.83,1.458-4.455,2.322,2.378-2.529,6.833-4.477,8.607-5.192a77.6,77.6,0,0,1,17.715-4.381,15.961,15.961,0,0,0-6.61-4.393,45.26,45.26,0,0,0-8.694-1.8c-4.8-.69-7.539-1.149-7.8-2.455a1.2,1.2,0,0,1,.1-.777,3.227,3.227,0,0,0,.879.9,2.714,2.714,0,0,0,.238.142l.006.006c1.127.594,4.161,1.031,6.69,1.4a46.088,46.088,0,0,1,8.861,1.839c5.446,2.1,7.325,5.1,7.4,5.229S35.677,17.165,35.677,17.165Zm0,0" transform="translate(-0.405 -0.857)" fill="#fff"/>
  </g>
</svg>
