<svg xmlns="http://www.w3.org/2000/svg" width="42" height="28.52" viewBox="0 0 42 28.52">
  <path id="Icon_simple-mysql" data-name="Icon simple-mysql" d="M28.709,9.933a1.931,1.931,0,0,0-.479.058v.023h.024a3.948,3.948,0,0,0,.375.478c.094.187.175.375.27.56l.024-.026a.651.651,0,0,0,.245-.583c-.07-.082-.08-.165-.14-.245-.07-.117-.221-.175-.315-.268ZM10.1,33.022H8.475C8.423,30.289,8.26,27.72,8,25.3H7.989L5.521,33.022H4.287L1.837,25.3H1.82q-.27,3.473-.341,7.718H0q.144-5.161.717-9.677H2.73l2.336,7.112H5.08l2.357-7.112H9.354q.635,5.289.749,9.677Zm7.03-7.14a21.882,21.882,0,0,1-2.611,7.805,3.478,3.478,0,0,1-2.77,1.878,2.732,2.732,0,0,1-.99-.242v-.864a4.491,4.491,0,0,0,.675.046,1.632,1.632,0,0,0,1.132-.389,1.41,1.41,0,0,0,.516-1.059,7.02,7.02,0,0,0-.4-1.652L10.9,25.882h1.592l1.272,4.13a5.545,5.545,0,0,1,.359,1.965,26.7,26.7,0,0,0,1.461-6.1ZM38.7,33.022h-4.6V23.345h1.549v8.488H38.7Zm-5.81.236-1.778-.875a3.759,3.759,0,0,0,.446-.437A5.928,5.928,0,0,0,32.688,28q0-4.8-3.771-4.806a3.588,3.588,0,0,0-2.888,1.22A5.941,5.941,0,0,0,24.9,28.347a5.737,5.737,0,0,0,1,3.745,3.44,3.44,0,0,0,2.77,1.076A4.449,4.449,0,0,0,29.942,33l2.319,1.351.63-1.089Zm-5.761-2.174a5.946,5.946,0,0,1-.59-3.038q0-3.657,2.222-3.657a1.87,1.87,0,0,1,1.71.875,5.919,5.919,0,0,1,.588,3.015q0,3.686-2.222,3.689a1.871,1.871,0,0,1-1.712-.875Zm-2.9-.744a2.564,2.564,0,0,1-.9,2.023,3.548,3.548,0,0,1-2.422.787,4.854,4.854,0,0,1-2.753-.9l.415-.833a4.7,4.7,0,0,0,2.083.574,2.187,2.187,0,0,0,1.37-.385,1.319,1.319,0,0,0,.525-1.076c0-.577-.4-1.067-1.134-1.479-.679-.373-2.035-1.15-2.035-1.15a2.316,2.316,0,0,1-1.106-2.06,2.4,2.4,0,0,1,.823-1.9,3.1,3.1,0,0,1,2.135-.726,4.393,4.393,0,0,1,2.45.718l-.373.833a4.771,4.771,0,0,0-1.862-.4,1.648,1.648,0,0,0-1.145.361,1.2,1.2,0,0,0-.434.917c0,.574.41,1.067,1.166,1.487C21.71,27.506,23.1,28.3,23.1,28.3a2.278,2.278,0,0,1,1.134,2.044ZM40.642,20.1a5.365,5.365,0,0,0-2.27.329c-.175.07-.455.07-.479.292.1.093.11.245.193.375a2.685,2.685,0,0,0,.605.712c.245.192.49.378.747.542.455.28.971.446,1.417.728.254.164.513.373.77.548.128.087.21.245.375.3v-.035c-.081-.1-.1-.257-.184-.375-.117-.117-.235-.222-.35-.338A5.64,5.64,0,0,0,40.25,22c-.375-.256-1.194-.612-1.347-1.041l-.023-.024a4.709,4.709,0,0,0,.805-.185c.4-.1.761-.082,1.173-.185.186-.047.373-.1.56-.164v-.1c-.21-.21-.368-.5-.584-.691a15.518,15.518,0,0,0-1.932-1.44c-.368-.235-.833-.385-1.22-.584-.14-.07-.375-.1-.455-.222a4.512,4.512,0,0,1-.481-.9c-.336-.644-.665-1.356-.957-2.035a12.118,12.118,0,0,0-.6-1.335A11.79,11.79,0,0,0,30.667,8.71a5.7,5.7,0,0,0-1.5-.479c-.292-.014-.584-.035-.875-.047a4.246,4.246,0,0,1-.542-.411c-.665-.42-2.387-1.33-2.877-.126-.315.76.467,1.508.739,1.893a5.4,5.4,0,0,1,.595.875c.082.2.1.411.187.623A14,14,0,0,0,27,12.607a5.367,5.367,0,0,0,.432.723c.094.128.256.187.292.4a3.407,3.407,0,0,0-.27.875,5.184,5.184,0,0,0,.34,3.937c.187.291.633.934,1.23.688.525-.21.41-.875.56-1.461.035-.14.012-.233.084-.327v.026c.164.329.329.642.479.971A6.585,6.585,0,0,0,31.668,20c.28.21.5.574.852.7v-.035h-.026a1.562,1.562,0,0,0-.27-.233,6.028,6.028,0,0,1-.612-.7A15.33,15.33,0,0,1,30.3,17.607c-.192-.368-.354-.763-.507-1.125-.07-.14-.07-.35-.187-.42a4.319,4.319,0,0,0-.56.793,6.686,6.686,0,0,0-.329,1.767c-.047.012-.024,0-.047.024-.375-.091-.5-.479-.642-.805a5.079,5.079,0,0,1-.1-3.124c.082-.245.432-1.019.292-1.253-.073-.222-.3-.35-.432-.53a4.336,4.336,0,0,1-.42-.747c-.28-.655-.42-1.379-.725-2.033a6.061,6.061,0,0,0-.584-.9,5.888,5.888,0,0,1-.644-.91c-.058-.128-.14-.34-.047-.479a.2.2,0,0,1,.164-.157c.154-.126.586.038.739.109a5.985,5.985,0,0,1,1.159.585c.164.116.341.338.551.4h.245c.375.082.8.024,1.146.128a7.488,7.488,0,0,1,1.684.805,10.418,10.418,0,0,1,3.649,4c.14.269.2.516.329.8.245.578.548,1.16.8,1.718a7.62,7.62,0,0,0,.833,1.57c.175.245.878.373,1.194.5a8.5,8.5,0,0,1,.805.329c.4.245.794.525,1.173.795.193.133.775.425.81.662Z" transform="translate(0 -7.046)" fill="#fff"/>
</svg>
