<svg xmlns="http://www.w3.org/2000/svg" width="28.001" height="28.001" viewBox="0 0 28.001 28.001">
  <path id="Icon_awesome-python" data-name="Icon awesome-python" d="M27.487,12.531c-.481-1.931-1.394-3.387-3.337-3.387H21.644v2.963a4.287,4.287,0,0,1-4.175,4.237H10.794a3.406,3.406,0,0,0-3.338,3.394V26.1c0,1.813,1.575,2.875,3.338,3.394a11.231,11.231,0,0,0,6.675,0c1.681-.487,3.337-1.469,3.337-3.394V23.556H14.137v-.85H24.15c1.944,0,2.663-1.356,3.337-3.388a11.431,11.431,0,0,0,0-6.788Zm-9.6,12.719a1.272,1.272,0,1,1-1.256,1.269A1.263,1.263,0,0,1,17.888,25.25Zm-7.4-9.744h6.675A3.365,3.365,0,0,0,20.5,12.113V5.744a3.731,3.731,0,0,0-3.337-3.475,20.6,20.6,0,0,0-6.675.006C7.663,2.775,7.15,3.819,7.15,5.75V8.294h6.681v.85H4.644A4.172,4.172,0,0,0,.469,12.531a12.518,12.518,0,0,0,0,6.788c.475,1.975,1.606,3.388,3.55,3.388H6.313v-3.05a4.244,4.244,0,0,1,4.175-4.15Zm-.419-8.913a1.272,1.272,0,1,1,1.256-1.269A1.263,1.263,0,0,1,10.069,6.594Z" transform="translate(0 -2)" fill="#fff"/>
</svg>
