<svg xmlns="http://www.w3.org/2000/svg" width="26.251" height="26.251" viewBox="0 0 26.251 26.251">
  <path id="Icon_awesome-python" data-name="Icon awesome-python" d="M25.77,11.748c-.451-1.811-1.307-3.176-3.129-3.176h-2.35V11.35a4.019,4.019,0,0,1-3.914,3.973H10.119A3.193,3.193,0,0,0,6.99,18.5v5.965c0,1.7,1.477,2.7,3.129,3.182a10.529,10.529,0,0,0,6.258,0c1.576-.457,3.129-1.377,3.129-3.182V22.084H13.254v-.8h9.387c1.822,0,2.5-1.271,3.129-3.176A10.717,10.717,0,0,0,25.77,11.748Zm-9,11.924a1.192,1.192,0,1,1-1.178,1.189A1.184,1.184,0,0,1,16.77,23.672ZM9.832,14.537H16.09a3.155,3.155,0,0,0,3.129-3.182V5.385A3.5,3.5,0,0,0,16.09,2.127a19.314,19.314,0,0,0-6.258.006C7.184,2.6,6.7,3.58,6.7,5.391V7.775h6.264v.8H4.354A3.912,3.912,0,0,0,.439,11.748a11.736,11.736,0,0,0,0,6.363c.445,1.852,1.506,3.176,3.328,3.176h2.15V18.428A3.979,3.979,0,0,1,9.832,14.537ZM9.439,6.182a1.192,1.192,0,1,1,1.178-1.189A1.184,1.184,0,0,1,9.439,6.182Z" transform="translate(0 -1.875)" fill="#fdbd15"/>
</svg>
