<svg xmlns="http://www.w3.org/2000/svg" width="34.591" height="30.419" viewBox="0 0 34.591 30.419">
  <path id="Icon_awesome-react" data-name="Icon awesome-react" d="M28.091,12q-.544-.181-1.088-.343c.06-.249.114-.5.168-.746.826-4,.282-7.221-1.552-8.282-1.767-1.014-4.648.04-7.563,2.579-.289.249-.571.51-.84.772-.181-.175-.369-.349-.558-.517C13.6,2.754,10.539,1.612,8.705,2.68,6.945,3.7,6.421,6.73,7.16,10.519c.074.376.154.746.249,1.122-.43.121-.853.255-1.249.4C2.573,13.279,0,15.241,0,17.269c0,2.1,2.741,4.2,6.468,5.474.3.1.6.2.914.289-.1.4-.188.8-.269,1.209-.705,3.728-.154,6.683,1.605,7.7,1.814,1.048,4.863-.027,7.832-2.626.235-.208.47-.423.705-.652.3.289.6.564.914.833,2.875,2.472,5.716,3.473,7.469,2.458,1.814-1.048,2.4-4.225,1.639-8.094q-.091-.443-.2-.907c.215-.06.423-.128.631-.195,3.876-1.283,6.683-3.359,6.683-5.488,0-2.035-2.647-4.01-6.3-5.266ZM19,6.3c2.5-2.176,4.83-3.029,5.891-2.418,1.135.652,1.572,3.285.86,6.744-.047.228-.094.45-.154.672a34.386,34.386,0,0,0-4.521-.712,33.937,33.937,0,0,0-2.861-3.567c.262-.249.517-.484.786-.719ZM11.231,20.755c.343.584.692,1.169,1.061,1.74a30.416,30.416,0,0,1-3.117-.5A31.378,31.378,0,0,1,10.27,19c.309.591.625,1.175.961,1.753ZM9.2,12.675c.967-.215,1.995-.39,3.063-.524-.356.558-.705,1.128-1.034,1.706s-.652,1.155-.954,1.746c-.423-1-.779-1.982-1.075-2.929Zm1.84,4.628c.443-.927.927-1.834,1.437-2.727s1.061-1.76,1.639-2.613c1.008-.074,2.035-.114,3.083-.114s2.082.04,3.083.114q.856,1.27,1.632,2.6t1.458,2.714q-.675,1.39-1.451,2.741c-.51.893-1.055,1.76-1.626,2.62-1,.074-2.042.107-3.1.107s-2.076-.034-3.063-.094q-.877-1.28-1.652-2.62c-.517-.893-.994-1.8-1.444-2.727Zm12.131,3.439c.343-.591.665-1.189.981-1.793a31.18,31.18,0,0,1,1.135,2.976,29.5,29.5,0,0,1-3.157.537C22.489,21.9,22.831,21.32,23.167,20.742Zm.967-5.139c-.316-.591-.638-1.182-.974-1.76s-.672-1.135-1.028-1.693a30.91,30.91,0,0,1,3.083.537A29.727,29.727,0,0,1,24.134,15.6ZM17.209,8.047a29.5,29.5,0,0,1,1.988,2.4c-1.33-.06-2.667-.06-4,0C15.859,9.585,16.537,8.779,17.209,8.047ZM9.417,3.929c1.128-.658,3.634.282,6.274,2.62.168.148.336.309.51.47a34.126,34.126,0,0,0-2.882,3.567,35.408,35.408,0,0,0-4.514.7c-.087-.343-.161-.692-.235-1.041-.631-3.251-.215-5.7.846-6.314ZM7.772,21.635c-.282-.081-.558-.168-.833-.262a13.7,13.7,0,0,1-4.232-2.1,3.014,3.014,0,0,1-1.263-2.008c0-1.229,2.123-2.8,5.186-3.869.383-.134.772-.255,1.162-.369A35.717,35.717,0,0,0,9.437,17.3,36.716,36.716,0,0,0,7.772,21.635ZM15.6,28.218a12.294,12.294,0,0,1-3.788,2.371,2.973,2.973,0,0,1-2.371.087c-1.068-.618-1.511-2.989-.907-6.18.074-.376.154-.752.249-1.122a33.6,33.6,0,0,0,4.561.658,35.447,35.447,0,0,0,2.9,3.587C16.034,27.828,15.819,28.03,15.6,28.218Zm1.646-1.632c-.685-.739-1.37-1.558-2.035-2.438.645.027,1.31.04,1.982.04.692,0,1.37-.013,2.042-.047a28.968,28.968,0,0,1-1.988,2.445ZM26.028,28.6a2.985,2.985,0,0,1-1.108,2.1c-1.068.618-3.345-.188-5.8-2.3-.282-.242-.564-.5-.853-.772a33.229,33.229,0,0,0,2.835-3.6,33.112,33.112,0,0,0,4.581-.705c.067.275.128.551.181.819A12.245,12.245,0,0,1,26.028,28.6Zm1.222-7.221c-.188.06-.376.121-.571.175a34.121,34.121,0,0,0-1.713-4.285,33.953,33.953,0,0,0,1.646-4.225c.349.1.685.208,1.008.316,3.13,1.075,5.327,2.673,5.327,3.9C32.947,18.572,30.6,20.272,27.251,21.38ZM17.2,20.373A3.076,3.076,0,1,0,14.119,17.3,3.076,3.076,0,0,0,17.2,20.373Z" transform="translate(0.1 -2.093)" fill="#fdbd15" stroke="#fdbd15" stroke-width="0.2"/>
</svg>
