<svg xmlns="http://www.w3.org/2000/svg" width="44.999" height="33.753" viewBox="0 0 44.999 33.753">
  <path id="Icon_awesome-sass" data-name="Icon awesome-sass" d="M21.223,26.643C21.2,26.685,21.181,26.719,21.223,26.643ZM38.74,20.526a9.222,9.222,0,0,0-4.078.949,8.66,8.66,0,0,1-.914-2.116,5.649,5.649,0,0,1-.077-1.779,14.981,14.981,0,0,1,.534-1.913c-.007-.077-.1-.464-1.005-.471s-1.688.176-1.778.415a8.636,8.636,0,0,0-.373,1.343A32.58,32.58,0,0,1,28.3,22.248a5.459,5.459,0,0,1-.626-1.547,5.649,5.649,0,0,1-.077-1.779,14.981,14.981,0,0,1,.534-1.913c-.007-.077-.1-.464-1-.471s-1.687.176-1.779.415-.19.8-.373,1.343S22.592,23.732,22.016,25c-.3.647-.548,1.167-.731,1.519-.028.056-.049.091-.063.12.021-.035.035-.07.035-.056-.155.3-.246.471-.246.471v.007c-.12.225-.253.429-.316.429a2.917,2.917,0,0,1,.021-1.4c.33-1.7,1.111-4.345,1.1-4.437-.007-.049.148-.506-.513-.752a.828.828,0,0,0-.928.155c-.056,0-.1.141-.1.141s.71-2.981-1.363-2.981c-1.294,0-3.094,1.42-3.978,2.707-.555.3-1.758.956-3.023,1.652l-1.455.8c-.035-.035-.063-.07-.1-.105C7.844,20.589,3.2,18.69,3.395,15.083c.07-1.315.527-4.767,8.935-8.958,6.891-3.431,12.4-2.489,13.348-.394,1.364,2.988-2.945,8.55-10.1,9.352-2.727.3-4.161-.752-4.52-1.146-.373-.415-.429-.436-.57-.359-.232.127-.084.492,0,.71a4.237,4.237,0,0,0,2.587,2.032,13.7,13.7,0,0,0,8.379-.83c4.344-1.673,7.725-6.335,6.734-10.238C27.177,1.288,20.6-.013,14.384,2.2A31.276,31.276,0,0,0,3.791,8.27c-3.424,3.206-3.971,6-3.746,7.165.8,4.141,6.509,6.841,8.793,8.838-.113.063-.218.12-.316.176-1.145.57-5.5,2.848-6.586,5.252-1.23,2.728.2,4.683,1.145,4.95a7.02,7.02,0,0,0,7.564-3.066,7.613,7.613,0,0,0,.675-7c-.007-.021-.021-.035-.028-.056.3-.176.6-.352.9-.527.583-.345,1.152-.661,1.652-.935a10.921,10.921,0,0,0-.591,3A6.224,6.224,0,0,0,14.595,30.4a1.476,1.476,0,0,0,1.082.352c.97,0,1.406-.8,1.891-1.758.6-1.167,1.125-2.524,1.125-2.524s-.661,3.67,1.146,3.67c.66,0,1.321-.851,1.617-1.287v.007s.014-.028.049-.084c.07-.105.105-.169.105-.169V28.59c.267-.457.851-1.5,1.729-3.234,1.139-2.236,2.228-5.027,2.228-5.027A14.15,14.15,0,0,0,26,22.143a16.984,16.984,0,0,0,.942,2.109c-.267.366-.429.577-.429.577a.022.022,0,0,0,.007.014c-.211.281-.45.584-.7.879a24.818,24.818,0,0,0-2.109,2.644.718.718,0,0,0,.2.963,1.709,1.709,0,0,0,1.1.176,4.876,4.876,0,0,0,1.652-.38,5.78,5.78,0,0,0,1.42-.745,3.174,3.174,0,0,0,1.364-2.8,5.823,5.823,0,0,0-.513-1.983c.077-.112.162-.232.239-.352a37.378,37.378,0,0,0,2.467-4.262,14.15,14.15,0,0,0,.436,1.814,12.4,12.4,0,0,0,.8,1.807,7.729,7.729,0,0,0-2.4,3.1c-.52,1.5-.112,2.173.654,2.327a2.359,2.359,0,0,0,1.2-.246,5.587,5.587,0,0,0,1.518-.78,3.4,3.4,0,0,0,1.673-2.784,5.231,5.231,0,0,0-.38-1.645,8.582,8.582,0,0,1,4.366-.506c3.915.457,4.681,2.9,4.534,3.923a2.6,2.6,0,0,1-1.245,1.758c-.274.169-.359.232-.338.359.035.183.162.176.394.134A3.054,3.054,0,0,0,45,25.523c.112-2.391-2.186-5.02-6.258-5ZM8.563,30.7c-1.293,1.413-3.107,1.948-3.887,1.5-.837-.487-.506-2.566,1.089-4.073a20.833,20.833,0,0,1,3.051-2.278c.19-.112.464-.281.8-.485.056-.035.084-.049.084-.049.063-.042.134-.077.2-.12A5.612,5.612,0,0,1,8.563,30.7Zm9.447-6.427c-.45,1.1-1.4,3.916-1.975,3.769-.492-.127-.795-2.271-.1-4.38a9.7,9.7,0,0,1,1.54-2.82c.709-.795,1.49-1.048,1.673-.731C19.4,20.526,18.292,23.584,18.011,24.273ZM25.815,28c-.19.1-.366.162-.45.112-.063-.035.077-.169.077-.169s.977-1.048,1.364-1.526c.225-.281.485-.612.766-.977,0,.035.007.07.007.112A3.26,3.26,0,0,1,25.813,28Zm6.017-1.371c-.141-.1-.12-.429.352-1.455a5.465,5.465,0,0,1,1.336-1.723,2.544,2.544,0,0,1,.134.759,2.479,2.479,0,0,1-1.82,2.419Z" transform="translate(0 -1.125)" fill="#fff"/>
</svg>
