<svg xmlns="http://www.w3.org/2000/svg" width="40" height="30.002" viewBox="0 0 40 30.002">
  <path id="Icon_awesome-sass" data-name="Icon awesome-sass" d="M18.865,23.683C18.846,23.72,18.827,23.75,18.865,23.683Zm15.571-5.437a8.2,8.2,0,0,0-3.625.844A7.7,7.7,0,0,1,30,17.208a5.022,5.022,0,0,1-.069-1.581,13.316,13.316,0,0,1,.475-1.7c-.006-.069-.087-.413-.894-.419s-1.5.156-1.581.369A7.677,7.677,0,0,0,27.6,15.07a28.96,28.96,0,0,1-2.443,4.706A4.853,4.853,0,0,1,24.6,18.4a5.022,5.022,0,0,1-.069-1.581,13.316,13.316,0,0,1,.475-1.7c-.006-.069-.087-.413-.893-.419s-1.5.156-1.581.369-.169.712-.331,1.194-2.118,4.831-2.63,5.962c-.263.575-.487,1.038-.65,1.35-.025.05-.044.081-.056.106.019-.031.031-.062.031-.05-.138.269-.219.419-.219.419v.006c-.106.2-.225.381-.281.381a2.593,2.593,0,0,1,.019-1.244c.294-1.513.987-3.862.981-3.944-.006-.044.131-.45-.456-.669a.736.736,0,0,0-.825.138c-.05,0-.087.125-.087.125s.631-2.65-1.212-2.65c-1.15,0-2.75,1.263-3.536,2.406-.494.269-1.562.85-2.687,1.469L9.3,20.783c-.031-.031-.056-.062-.087-.094C6.973,18.3,2.843,16.614,3.018,13.408c.063-1.169.469-4.238,7.942-7.963C17.084,2.4,21.981,3.233,22.824,5.1c1.212,2.656-2.618,7.6-8.979,8.313a4.788,4.788,0,0,1-4.017-1.019C9.5,12.02,9.447,12,9.322,12.07c-.206.113-.075.438,0,.631a3.766,3.766,0,0,0,2.3,1.806,12.178,12.178,0,0,0,7.448-.738c3.861-1.488,6.867-5.631,5.986-9.1-.9-3.525-6.743-4.681-12.269-2.719a27.8,27.8,0,0,0-9.416,5.4C.326,10.2-.161,12.683.039,13.72.751,17.4,5.825,19.8,7.856,21.576c-.1.056-.194.106-.281.156-1.018.506-4.886,2.531-5.854,4.669-1.094,2.425.181,4.163,1.018,4.4a6.24,6.24,0,0,0,6.723-2.725,6.767,6.767,0,0,0,.6-6.219c-.006-.019-.019-.031-.025-.05.262-.156.531-.312.8-.469.518-.306,1.024-.587,1.468-.831a9.708,9.708,0,0,0-.525,2.663,5.533,5.533,0,0,0,1.194,3.856,1.312,1.312,0,0,0,.962.313c.863,0,1.25-.712,1.681-1.562.531-1.038,1-2.244,1-2.244S16.028,26.8,17.634,26.8c.587,0,1.174-.756,1.438-1.144v.006s.013-.025.044-.075c.063-.094.094-.15.094-.15v-.019c.237-.406.756-1.337,1.537-2.875,1.013-1.987,1.981-4.469,1.981-4.469a12.578,12.578,0,0,0,.388,1.613,15.1,15.1,0,0,0,.837,1.875c-.237.325-.381.513-.381.513a.019.019,0,0,0,.006.013c-.187.25-.4.519-.619.781a22.06,22.06,0,0,0-1.875,2.35.639.639,0,0,0,.175.856,1.519,1.519,0,0,0,.981.156,4.334,4.334,0,0,0,1.469-.337,5.137,5.137,0,0,0,1.262-.663,2.822,2.822,0,0,0,1.212-2.487,5.176,5.176,0,0,0-.456-1.763c.069-.1.144-.206.212-.312a33.226,33.226,0,0,0,2.193-3.789,12.578,12.578,0,0,0,.388,1.613,11.023,11.023,0,0,0,.712,1.606A6.87,6.87,0,0,0,27.1,22.85c-.462,1.331-.1,1.931.581,2.069A2.1,2.1,0,0,0,28.75,24.7a4.966,4.966,0,0,0,1.349-.694,3.02,3.02,0,0,0,1.487-2.475,4.65,4.65,0,0,0-.337-1.462,7.629,7.629,0,0,1,3.881-.45c3.48.406,4.161,2.581,4.03,3.487a2.311,2.311,0,0,1-1.106,1.563c-.244.15-.319.206-.3.319.031.163.144.156.35.119A2.715,2.715,0,0,0,40,22.687c.1-2.125-1.943-4.462-5.562-4.444ZM7.612,27.289C6.462,28.545,4.85,29.02,4.157,28.62c-.744-.432-.45-2.281.968-3.62a18.518,18.518,0,0,1,2.712-2.025c.169-.1.413-.25.712-.431.05-.031.075-.044.075-.044.056-.038.119-.069.181-.106a4.989,4.989,0,0,1-1.194,4.894Zm8.4-5.712c-.4.981-1.243,3.481-1.756,3.35-.437-.112-.706-2.019-.087-3.894a8.62,8.62,0,0,1,1.369-2.506c.631-.706,1.324-.931,1.487-.65.219.369-.763,3.087-1.013,3.7Zm6.938,3.313c-.169.087-.325.144-.4.1-.056-.031.069-.15.069-.15s.869-.931,1.212-1.356c.2-.25.431-.544.681-.869,0,.031.006.063.006.1a2.9,2.9,0,0,1-1.57,2.175ZM28.3,23.67c-.125-.087-.106-.381.313-1.294A4.858,4.858,0,0,1,29.8,20.845a2.261,2.261,0,0,1,.119.675A2.2,2.2,0,0,1,28.3,23.67Z" transform="translate(0 -1)" fill="#fdbd15"/>
</svg>
