<svg xmlns="http://www.w3.org/2000/svg" width="27.99" height="28" viewBox="0 0 27.99 28">
  <g id="surface4878477" transform="translate(-4.014 -4)">
    <path id="Path_80" data-name="Path 80" d="M33.4,4.175l5.862,2.8A1.784,1.784,0,0,1,40.28,8.583v18.8a1.779,1.779,0,0,1-1.009,1.608c-1.786.861-5.329,2.568-5.564,2.68a2.646,2.646,0,0,1-1,.328,1.555,1.555,0,0,1-1.1-.511L33.28,26.2V5.2L31.7,4.4a1.585,1.585,0,0,1,1.08-.4A1.366,1.366,0,0,1,33.4,4.175Zm0,0" transform="translate(-8.276)" fill="#fdbd15"/>
    <path id="Path_81" data-name="Path 81" d="M7.5,25.04,25,11.724V5.394a1.056,1.056,0,0,0-1.635-.829C22.91,4.989,4.464,21.781,4.464,21.781A1.4,1.4,0,0,0,4.54,23.9s.927.864,1.261,1.1A1.441,1.441,0,0,0,7.5,25.04Zm0,0" transform="translate(0 -0.114)" fill="#fdbd15"/>
    <path id="Path_82" data-name="Path 82" d="M7.5,13.993,25,27.329V33.47c0,.839-1,1.534-1.679.938L4.464,17.253a1.4,1.4,0,0,1,.077-2.122s.927-.864,1.261-1.1A1.441,1.441,0,0,1,7.5,13.993Zm0,0" transform="translate(0 -2.919)" fill="#fdbd15"/>
  </g>
</svg>
