<svg id="layer1" xmlns="http://www.w3.org/2000/svg" width="155.709" height="216.936" viewBox="0 0 155.709 216.936">
  <g id="g3013" transform="translate(0 0)">
    <path id="polygon2989" d="M183.7,37.733,169.511,194.587l-63.764,17.449L42.158,194.611,27.987,37.733Z" transform="translate(-27.987 4.9)" fill="#264de4"/>
    <path id="polygon2991" d="M147.525,183.124,159.647,49.085H96V197.224Z" transform="translate(-18.146 6.375)" fill="#2965f1"/>
    <path id="polygon2993" d="M56.366,100.581l1.747,19.24h43.622v-19.24Z" transform="translate(-23.881 13.063)" fill="#ebebeb"/>
    <path id="polygon2995" d="M102.179,66.114H53.3l1.772,19.241h47.107Z" transform="translate(-24.325 8.587)" fill="#ebebeb"/>
    <path id="polygon2997" d="M101.4,167.252V147.234l-.085.022-21.71-5.786-1.388-15.345H58.653l2.731,30.21,39.93,10.941Z" transform="translate(-23.55 16.38)" fill="#ebebeb"/>
    <path id="path2999" d="M60,0H83.61V9.745H69.873V19.49H83.61v9.745H60Z" transform="translate(-23.355)"/>
    <path id="path3001" d="M84.75,0h23.61V8.474H94.623v1.695H108.36v19.49H84.75v-8.9H98.486V19.067H84.75Z" transform="translate(-19.774)"/>
    <path id="path3003" d="M109.5,0h23.61V8.474H119.373v1.695H133.11v19.49H109.5v-8.9h13.736V19.067H109.5Z" transform="translate(-16.192)"/>
    <path id="polygon3005" d="M119.945,124.3l-2.263,24.954-21.741,5.792v20.017L135.9,164.129l.293-3.251,4.581-50.654.476-5.167,3.519-38.943H95.941V85.355h27.468l-1.774,19.7H95.941V124.3Z" transform="translate(-18.154 8.587)" fill="#fff"/>
  </g>
</svg>
