<svg id="heroku" xmlns="http://www.w3.org/2000/svg" width="126.374" height="197.179" viewBox="0 0 126.374 197.179">
  <path id="Path_73" data-name="Path 73" d="M13.863,196.615V179.447a1.7,1.7,0,0,0-1.934-1.733,18.411,18.411,0,0,0-7.094,1.57v17.331H0V164.737H4.835v10.517a23.076,23.076,0,0,1,7.779-1.57c4.392,0,6.045,2.7,6.045,6.406v16.525h-4.8Zm13.822-10.4c.161,5.763,1.29,6.892,4.835,6.892a24.938,24.938,0,0,0,8.344-1.855l.806,3.626a22.583,22.583,0,0,1-9.47,2.3c-8.061,0-9.311-4.432-9.311-11.486a38.309,38.309,0,0,1,1.209-10.6,27.656,27.656,0,0,1,9.712-1.41c6.611,0,8.626,3.668,8.626,10.075v2.458H27.685Zm6.124-8.5a32.4,32.4,0,0,0-5.641.4,25.64,25.64,0,0,0-.524,4.757H37.719C37.719,179.526,37.115,177.714,33.809,177.714Zm17.691,1.57v17.331H46.664V177.109a27.971,27.971,0,0,1,11.2-3.1v4.03a20.559,20.559,0,0,0-6.368,1.248Zm19.143,17.895c-7.215,0-10.479-3.546-10.479-11.647,0-8.584,4.312-11.848,10.479-11.848,7.213,0,10.478,3.545,10.478,11.646,0,8.585-4.313,11.849-10.478,11.849Zm0-19.465c-3.708,0-5.763,2.135-5.763,7.817,0,6.207,1.733,7.578,5.763,7.578,3.707,0,5.763-2.1,5.763-7.779,0-6.207-1.733-7.617-5.763-7.617Zm33.81,18.9H98.769A31.5,31.5,0,0,0,92.724,186.3H90.185v10.317H85.349V164.737h4.836v18.3h2.257a29.336,29.336,0,0,0,5.682-8.785h5.44A37.824,37.824,0,0,1,96.674,184a68.332,68.332,0,0,1,7.778,12.615Zm9.065.564c-4.392,0-6.044-2.7-6.044-6.408V174.247h4.8v17.128a1.7,1.7,0,0,0,1.934,1.734,19.554,19.554,0,0,0,7.336-1.572v-17.29h4.836v19.425A25.642,25.642,0,0,1,113.518,197.179Zm-2.137-40.567H14.937A14.935,14.935,0,0,1,0,141.676V14.936A14.936,14.936,0,0,1,14.936,0h96.444a14.937,14.937,0,0,1,14.938,14.936V141.676a14.937,14.937,0,0,1-14.938,14.935Z" fill="#6762a6"/>
  <path id="Path_74" data-name="Path 74" d="M109.146,156.947V94.752s4.045-14.884-49.83,6.089c-.1.266-.1-57.512-.1-57.512l17.6-.109V80.239s49.289-19.413,49.289,14.723v61.985H109.147Zm10.031-91.322H100.505c6.721-8.217,12.805-22.3,12.805-22.3h19.307s-3.305,9.175-13.44,22.3Zm-59.64,91.215V121.421l17.711,17.711L59.537,156.839Z" transform="translate(-29.985 -21.884)" fill="#fff"/>
</svg>
