<svg xmlns="http://www.w3.org/2000/svg" width="148.069" height="209" viewBox="0 0 148.069 209">
  <g id="Group_7" data-name="Group 7" transform="translate(-237.965 -1321)">
    <g id="html5_1_" data-name="html5 (1)" transform="translate(163.322 1290.891)">
      <path id="Path_57" data-name="Path 57" d="M88.118,222.322,74.643,71.182H222.712L209.222,222.3l-60.636,16.811Z" fill="#e44d26"/>
      <path id="Path_58" data-name="Path 58" d="M148.678,226.26l49-13.584L209.2,83.54H148.678Z" fill="#f16529"/>
      <path id="Path_59" data-name="Path 59" d="M148.678,139.6H124.149l-1.694-18.982h26.223V102.077H102.2l.444,4.973,4.556,51.082h41.482Zm0,48.141-.081.022-20.644-5.575-1.32-14.783H108.024l2.6,29.105,37.971,10.541.085-.024Z" fill="#ebebeb"/>
      <path id="Path_60" data-name="Path 60" d="M88.419,30.109h9.42v9.307h8.617V30.109h9.42V58.292h-9.42V48.855H97.839v9.437H88.42Zm39.845,9.347h-8.293V30.109h26.011v9.347h-8.3V58.292h-9.421V39.455Zm21.846-9.347h9.823l6.042,9.9,6.037-9.9h9.826V58.292h-9.383V44.323l-6.481,10.021h-.162l-6.485-10.021v13.97H150.11V30.109Zm36.416,0h9.423V48.977H209.2v9.316H186.526Z"/>
      <path id="Path_61" data-name="Path 61" d="M148.614,139.6v18.536H171.44l-2.152,24.041-20.674,5.58v19.285l38-10.531.278-3.133,4.357-48.8.452-4.978H148.614Zm0-37.519v18.537h44.775l.371-4.167.845-9.4.444-4.973Z" fill="#fff"/>
    </g>
  </g>
</svg>
