<svg xmlns="http://www.w3.org/2000/svg" width="328" height="93.455" viewBox="0 0 328 93.455">
  <g id="Group_10" data-name="Group 10" transform="translate(-1553.619 -2060.272)">
    <g id="mongodb" transform="translate(1553.619 2060.142)">
      <path id="Path_63" data-name="Path 63" d="M305.745,38.779c-.3.059-.591.71-.591,1.065-.059,2.368-.118,8.642-.118,12.9a.439.439,0,0,0,.355.355c.888.059,3.018.118,4.853.118a12.669,12.669,0,0,0,4.854-.709c2.13-1.066,3.136-3.374,3.136-5.92,0-5.74-4.025-7.93-10-7.93a9.494,9.494,0,0,0-2.486.119Zm15.271,26.456c0-5.859-4.321-9.115-12.133-9.115-.355,0-2.841-.059-3.433.059-.178.06-.414.178-.414.356,0,4.2-.06,10.89.118,13.494a4.466,4.466,0,0,0,1.954,3.2c1.065.592,3.492.71,5.149.71,4.676,0,8.76-2.6,8.76-8.7ZM293.672,35.524c.591,0,2.367.177,6.924.177,4.321,0,7.753-.118,11.956-.118,5.149,0,12.251,1.834,12.251,9.529,0,3.788-2.664,6.807-6.155,8.286-.177.059-.177.177,0,.236C323.619,54.877,328,57.955,328,63.755c0,5.682-3.551,9.293-8.7,11.542a28.31,28.31,0,0,1-11.008,1.834c-3.019,0-11.127-.355-15.625-.236-.473-.178.414-2.309.828-2.664a11.048,11.048,0,0,0,3.019-.474c1.6-.414,1.775-.888,2.012-3.314.119-2.072.119-9.411.119-14.619,0-7.161.06-12.015,0-14.382-.059-1.834-.71-2.427-2.012-2.782-1.007-.177-2.664-.414-4.025-.591-.3-.3.71-2.309,1.066-2.545ZM259.521,72.337c1.421,1.124,4.2,1.6,6.689,1.6a13.113,13.113,0,0,0,9.47-3.374c3.137-2.84,5.327-7.22,5.327-14.2,0-6.689-2.545-12.134-7.753-15.329-2.959-1.836-6.747-2.6-11.127-2.6a8.869,8.869,0,0,0-3.314.414,1.739,1.739,0,0,0-.592.947c-.119,1.184-.119,10.3-.119,15.625,0,5.5,0,13.2.119,14.086a3.67,3.67,0,0,0,1.3,2.841ZM246.086,35.523c1.125,0,5.445.178,7.517.178,3.73,0,6.392-.177,13.435-.177,5.918,0,10.89,1.6,14.442,4.616,4.32,3.729,6.57,8.878,6.57,15.152,0,8.937-4.084,14.087-8.168,17.046-4.083,3.018-9.41,4.794-16.986,4.794-4.025,0-10.949-.118-16.691-.178h-.059c-.3-.532.473-2.6.947-2.663a9.434,9.434,0,0,0,2.723-.532c1.242-.474,1.48-1.125,1.657-3.315.177-4.084.118-9,.118-14.56,0-3.965.059-11.719-.06-14.2-.177-2.071-1.065-2.6-2.841-2.959-.888-.177-2.072-.414-3.728-.591-.237-.415.828-2.249,1.124-2.6Z" fill="#8e714e" fill-rule="evenodd"/>
      <path id="Path_64" data-name="Path 64" d="M174.471,74.645a11.9,11.9,0,0,1-3.847-1.006,1.8,1.8,0,0,1-.474-.947c-.118-2.072-.118-7.99-.118-11.955,0-3.2-.532-5.978-1.894-7.931a8.08,8.08,0,0,0-6.866-3.551c-2.6,0-6.1,1.775-9,4.261-.059.059-.532.474-.473-.178,0-.651.119-1.953.178-2.841a1.534,1.534,0,0,0-.414-1.242,39.5,39.5,0,0,1-9.174,2.367c-1.42.3-1.775,1.658-.3,2.131h.059a13.133,13.133,0,0,1,3.491,1.539,1.841,1.841,0,0,1,.533,1.657c.059,4.438.059,11.245-.118,14.974-.059,1.48-.473,2.012-1.539,2.249l.119-.059a23.368,23.368,0,0,1-2.486.473,3.46,3.46,0,0,0,0,2.664c.651,0,4.084-.178,6.925-.178,3.906,0,5.918.178,6.924.178a3.854,3.854,0,0,0,.3-2.664,10.958,10.958,0,0,1-2.723-.414c-1.065-.237-1.362-.769-1.421-2.012-.117-3.138-.117-9.766-.117-14.264a2.854,2.854,0,0,1,.709-2.19,8.955,8.955,0,0,1,5.5-2.012,6.119,6.119,0,0,1,4.084,1.362,5.82,5.82,0,0,1,1.894,3.728c.3,2.545.178,7.576.178,11.956,0,2.367-.178,2.959-1.065,3.255a11.265,11.265,0,0,1-2.723.532,3.466,3.466,0,0,0,0,2.664c1.716,0,3.729-.178,6.688-.178,3.669,0,6.037.178,6.984.178a4.128,4.128,0,0,0,.177-2.546Zm16.394-22.608c-3.136,0-5.09,2.426-5.09,6.214,0,3.848,1.716,8.286,6.569,8.286a4.585,4.585,0,0,0,3.077-1.184,7.837,7.837,0,0,0,1.895-5.445c0-4.912-2.427-7.871-6.451-7.871ZM190.452,78.2a5.087,5.087,0,0,0-2.545.652c-2.486,1.6-3.61,3.136-3.61,4.972a5.235,5.235,0,0,0,2.072,4.261,10.515,10.515,0,0,0,7.1,2.19c6.037,0,8.7-3.256,8.7-6.451,0-2.25-1.125-3.73-3.433-4.558-1.657-.711-4.676-1.066-8.286-1.066Zm.414,15.389c-3.61,0-6.215-.77-8.463-2.486a7.8,7.8,0,0,1-3.137-5.859,4.534,4.534,0,0,1,1.184-2.959,31.388,31.388,0,0,1,5.445-4.38c.118-.059.177-.118.177-.237a.392.392,0,0,0-.237-.3c-2.782-1.065-3.61-2.782-3.848-3.729v-.119c-.058-.355-.177-.71.356-1.065.414-.3,1.006-.651,1.657-1.065a24.312,24.312,0,0,0,2.723-1.777.433.433,0,0,0,.119-.355.391.391,0,0,0-.237-.3c-4.142-1.362-6.214-4.439-6.214-9.056a8.986,8.986,0,0,1,3.787-7.457,17.4,17.4,0,0,1,8.523-2.9h.178a18.149,18.149,0,0,1,6.51,1.421,10.956,10.956,0,0,0,3.848.591,5.123,5.123,0,0,0,4.142-1.538,3.214,3.214,0,0,1,.237,1.183,4.47,4.47,0,0,1-.77,2.723,3.362,3.362,0,0,1-2.6,1.125h-.3a13.187,13.187,0,0,1-1.539-.237l-.236.119c-.059.119,0,.237.059.414l.06.119a21.845,21.845,0,0,1,.355,2.545c0,4.853-1.953,6.983-4.025,8.581a13.629,13.629,0,0,1-6.925,2.664,7.454,7.454,0,0,0-.829.059c-.3,0-.71.06-.77.06h-.059c-.473.118-1.657.71-1.657,1.716,0,.888.532,1.954,3.077,2.131.532.059,1.065.059,1.657.119,3.374.236,7.576.532,9.529,1.183a6.632,6.632,0,0,1,4.439,6.333c0,4.38-3.136,8.464-8.345,11.008a19.04,19.04,0,0,1-7.872,1.717ZM224.6,52.333a5.5,5.5,0,0,0-3.2.887c-2.308,1.421-3.492,4.262-3.492,8.4,0,7.754,3.906,13.2,9.47,13.2a6.022,6.022,0,0,0,4.084-1.421c1.716-1.421,2.6-4.262,2.6-8.227,0-7.694-3.848-12.843-9.47-12.843Zm1.066,25.331c-10.062,0-13.672-7.4-13.672-14.323A12.814,12.814,0,0,1,217.854,52.1a17.815,17.815,0,0,1,9.056-2.663c7.694,0,13.08,5.5,13.08,13.435,0,5.386-2.131,9.647-6.215,12.251a16.412,16.412,0,0,1-8.109,2.545h0ZM120.2,52.332a5.5,5.5,0,0,0-3.2.888c-2.308,1.421-3.492,4.262-3.492,8.4,0,7.754,3.906,13.2,9.47,13.2a6.025,6.025,0,0,0,4.084-1.421c1.716-1.421,2.6-4.262,2.6-8.227,0-7.694-3.788-12.843-9.47-12.843Zm1.065,25.332c-10.062,0-13.672-7.4-13.672-14.323A12.814,12.814,0,0,1,113.45,52.1a17.815,17.815,0,0,1,9.056-2.663c7.694,0,13.08,5.5,13.08,13.435,0,5.386-2.131,9.647-6.215,12.251a16.033,16.033,0,0,1-8.108,2.545Zm-67.65-.592a2.53,2.53,0,0,1-.178-1.361,2,2,0,0,1,.178-.888,21.83,21.83,0,0,0,2.6-.533c1.184-.3,1.657-.947,1.716-2.426.178-3.551.178-10.3.119-14.975v-.119a1.793,1.793,0,0,0-.651-1.657,13.372,13.372,0,0,0-3.551-1.539c-.532-.176-.888-.473-.829-.827,0-.355.355-.77,1.125-.888A43.3,43.3,0,0,0,63.2,49.55a1.464,1.464,0,0,1,.3.947l-.059.65c-.06.652-.119,1.421-.119,2.19a.458.458,0,0,0,.473.414.833.833,0,0,0,.355-.119c3.788-2.959,7.22-4.025,9-4.025,2.9,0,5.15,1.362,6.866,4.2a.446.446,0,0,0,.414.237.421.421,0,0,0,.355-.178c3.492-2.664,6.984-4.262,9.292-4.262,5.5,0,8.76,4.084,8.76,11.009,0,1.953,0,4.5-.059,6.807,0,2.071-.059,3.965-.059,5.327a1.862,1.862,0,0,0,1.065,1.42,12.638,12.638,0,0,0,3.433.829h.059a4.747,4.747,0,0,1-.355,2.249,14.545,14.545,0,0,1-1.48-.059q-2.247-.117-4.5-.119c-3.669,0-5.563.059-7.4.178a5.775,5.775,0,0,1,0-2.249,18.377,18.377,0,0,0,2.25-.532c1.184-.355,1.48-.888,1.539-2.427,0-1.124.236-10.713-.119-13.021a5.835,5.835,0,0,0-6.037-5.149,10.5,10.5,0,0,0-6.036,2.308,1.056,1.056,0,0,0-.237.592v.06a27.258,27.258,0,0,1,.237,4.853V65.53c0,2.664-.06,5.149,0,7.043a1.734,1.734,0,0,0,1.421,1.836c.355.058.591.118.888.177.532.119,1.065.237,1.894.414a3.194,3.194,0,0,1-.059,1.657,1.135,1.135,0,0,1-.237.592c-2.012-.059-4.084-.119-7.1-.119-.888,0-2.427.06-3.729.06-1.066,0-2.072.059-2.663.059a3.122,3.122,0,0,1-.178-1.184A1.844,1.844,0,0,1,71.607,75a4,4,0,0,1,.829-.118c.709-.119,1.3-.237,1.893-.355,1.007-.3,1.362-.829,1.421-2.131.178-2.959.355-11.423-.059-13.554-.71-3.433-2.663-5.149-5.8-5.149A10.86,10.86,0,0,0,63.853,56a1.911,1.911,0,0,0-.533,1.36v3.492c0,4.261,0,9.588.059,11.9a1.835,1.835,0,0,0,1.657,1.834,12.393,12.393,0,0,0,1.362.237L67.463,75a4.963,4.963,0,0,1-.177,2.249c-.592,0-1.3-.059-2.131-.059-1.242-.06-2.841-.119-4.616-.119-2.072,0-3.551.059-4.735.119a14.3,14.3,0,0,0-2.19-.119Z" fill="#442d22" fill-rule="evenodd"/>
      <path id="Path_65" data-name="Path 65" d="M22.482,91.277l-2.426-.829s.3-12.369-4.143-13.257c-2.959-3.433.475-145.6,11.128-.474,0,0-3.67,1.834-4.321,4.972-.711,3.078-.237,9.588-.237,9.588Z" fill="#fff" fill-rule="evenodd"/>
      <path id="Path_66" data-name="Path 66" d="M22.482,91.277l-2.426-.829s.3-12.369-4.143-13.257c-2.959-3.433.475-145.6,11.128-.474,0,0-3.67,1.834-4.321,4.972-.711,3.078-.237,9.588-.237,9.588Z" fill="#a6a385" fill-rule="evenodd"/>
      <path id="Path_67" data-name="Path 67" d="M23.784,79.321S45.033,65.353,40.06,36.292C35.267,15.164,23.962,8.239,22.719,5.575A29.878,29.878,0,0,1,20.055.368l.888,58.771c0,.06-1.835,17.993,2.841,20.184" fill="#fff" fill-rule="evenodd"/>
      <path id="Path_68" data-name="Path 68" d="M23.784,79.321S45.033,65.353,40.06,36.292C35.267,15.164,23.962,8.239,22.719,5.575A29.878,29.878,0,0,1,20.055.368l.888,58.771c0,.06-1.835,17.993,2.841,20.184" fill="#499d4a" fill-rule="evenodd"/>
      <path id="Path_69" data-name="Path 69" d="M18.813,80.09S-1.133,66.477.051,42.508C1.175,18.537,15.261,6.759,17.984,4.629c1.776-1.894,1.835-2.6,1.954-4.5,1.243,2.664,1.006,39.832,1.183,44.212C21.653,61.21,20.174,76.895,18.813,80.09Z" fill="#fff" fill-rule="evenodd"/>
      <path id="Path_70" data-name="Path 70" d="M18.813,80.09S-1.133,66.477.051,42.508C1.175,18.537,15.261,6.759,17.984,4.629c1.776-1.894,1.835-2.6,1.954-4.5,1.243,2.664,1.006,39.832,1.183,44.212C21.653,61.21,20.174,76.895,18.813,80.09Z" fill="#58aa50" fill-rule="evenodd"/>
    </g>
  </g>
</svg>
