<svg xmlns="http://www.w3.org/2000/svg" xmlns:xlink="http://www.w3.org/1999/xlink" width="156.76" height="148.973" viewBox="0 0 156.76 148.973">
  <defs>
    <filter id="Path_12" x="0" y="0.115" width="156.76" height="148.859" filterUnits="userSpaceOnUse">
      <feOffset dy="3" input="SourceAlpha"/>
      <feGaussianBlur stdDeviation="3" result="blur"/>
      <feFlood flood-opacity="0.161"/>
      <feComposite operator="in" in2="blur"/>
      <feComposite in="SourceGraphic"/>
    </filter>
  </defs>
  <g id="Group_6" data-name="Group 6" transform="translate(2.823 -13.361)">
    <g id="adobe-xd" transform="translate(-0.131 13.361)">
      <g transform="matrix(1, 0, 0, 1, -2.69, 0)" filter="url(#Path_12)">
        <path id="Path_12-2" data-name="Path 12" d="M40.583,40.583h138.76V171.442H40.583Z" transform="translate(-31.58 -34.47)" fill="#2e001e"/>
      </g>
      <path id="Path_13" data-name="Path 13" d="M0,0V143.088H151.375V0ZM6.307,6.115h138.76V136.973H6.307Z" fill="#ff2bc2"/>
      <path id="Path_14" data-name="Path 14" d="M264.885,251.409a8.9,8.9,0,0,0-3.658-.611c-7.947,0-13.245,5.931-13.245,15.776,0,11.251,5.424,15.776,12.488,15.776a12.239,12.239,0,0,0,4.352-.673V251.409Zm-28.257,15.654c0-14.248,9.461-25.377,24.977-25.377a28.847,28.847,0,0,1,3.28.122v-15.9a.623.623,0,0,1,.631-.611h10.155c.5,0,.631.183.631.489v55.89a42.238,42.238,0,0,0,.315,5.993c0,.428,0,.489-.378.673a38.559,38.559,0,0,1-16.147,3.547c-13.687,0-23.463-8.194-23.463-24.826Zm-21.508-9.906,17.66,33.2c.315.489.126.978-.378.978H221.428a1.241,1.241,0,0,1-1.325-.795c-4.037-8.072-8.136-16.449-12.362-25.132h-.126c-3.784,8.194-7.947,17.122-11.984,25.193a1.217,1.217,0,0,1-1.135.673h-10.47c-.631,0-.694-.489-.378-.856L200.93,258.2l-16.714-32.042a.541.541,0,0,1,.442-.917h10.849c.631,0,.946.122,1.135.673,3.974,8.133,8.01,16.143,11.795,24.337h.126c3.658-8.072,7.695-16.2,11.542-24.215.315-.489.5-.795,1.135-.795h10.155c.5,0,.694.367.378.917Z" transform="translate(-154.95 -191.3)" fill="#ff2bc2"/>
    </g>
  </g>
</svg>
