<svg xmlns="http://www.w3.org/2000/svg" width="56.382" height="53.568" viewBox="0 0 56.382 53.568">
  <path id="Octicons-mark-github" d="M28.191,0C12.615,0,0,12.289,0,27.462A27.519,27.519,0,0,0,19.276,53.516c1.41.24,1.938-.584,1.938-1.3,0-.652-.035-2.815-.035-5.115-7.083,1.27-8.915-1.682-9.479-3.227-.317-.79-1.691-3.227-2.89-3.879-.987-.515-2.4-1.785-.035-1.819,2.22-.034,3.806,1.991,4.334,2.815,2.537,4.154,6.59,2.986,8.211,2.266a5.723,5.723,0,0,1,1.8-3.673C16.844,38.893,10.29,36.524,10.29,26.02a10.535,10.535,0,0,1,2.89-7.38,9.632,9.632,0,0,1,.282-7.277s2.361-.721,7.753,2.815a27.26,27.26,0,0,1,14.1,0c5.392-3.57,7.753-2.815,7.753-2.815a9.632,9.632,0,0,1,.282,7.277,10.474,10.474,0,0,1,2.89,7.38c0,10.538-6.59,12.873-12.862,13.559,1.022.858,1.9,2.506,1.9,5.08,0,3.673-.035,6.625-.035,7.552,0,.721.529,1.579,1.938,1.3A27.578,27.578,0,0,0,56.382,27.462C56.382,12.289,43.767,0,28.191,0Z" fill="#292727" fill-rule="evenodd"/>
</svg>
