<svg id="Group_9" data-name="Group 9" xmlns="http://www.w3.org/2000/svg" width="184.433" height="206.267" viewBox="0 0 184.433 206.267">
  <g id="backpack">
    <path id="Path_20" data-name="Path 20" d="M227.879,300.95c15.63,0,27.287-4.311,34.678-12.832,10.588-12.208,7.967-28.271,7.85-28.948l-10.437,1.773c.019.118,1.845,11.949-5.473,20.309-5.614,6.412-15.319,9.471-28.855,9.078l-.3,10.583Q226.625,300.95,227.879,300.95Z" transform="translate(-93.241 -94.683)" fill="#00554b"/>
    <path id="Path_21" data-name="Path 21" d="M277.08,260.943l10.437-1.773c.1.6,2.141,13.111-4.591,24.426a14.017,14.017,0,0,1-10.759-3.017C278.826,272.271,277.1,261.058,277.08,260.943Z" transform="translate(-110.349 -94.683)" fill="#005b4e"/>
    <path id="Path_22" data-name="Path 22" d="M201.062,89.433l6.7-22.858c2,.586,19.977,6.31,36.153,26.708,9.363,11.807,16.19,26.165,20.291,42.676,3.657,14.722,5.131,31.217,4.425,49.219a12.126,12.126,0,0,1-3.274,7.8L259.44,199.3a4.761,4.761,0,0,1-7.373-.51l-5.033-7.151a12.2,12.2,0,0,1-2.2-7.489c1.186-31.435-5.151-57.084-18.633-74.855C214.439,93.8,201.062,89.433,201.062,89.433Z" transform="translate(-84.371 -24.322)" fill="#00665a"/>
    <path id="Path_23" data-name="Path 23" d="M70.965,300.95c-15.63,0-27.287-4.311-34.678-12.832C25.7,275.91,28.32,259.847,28.436,259.17l10.437,1.773c-.019.118-1.845,11.949,5.473,20.309,5.614,6.412,15.319,9.471,28.855,9.078l.3,10.583Q72.219,300.95,70.965,300.95Z" transform="translate(-21.17 -94.683)" fill="#00554b"/>
    <path id="Path_24" data-name="Path 24" d="M38.872,260.943,28.435,259.17c-.1.6-2.141,13.111,4.591,24.426.328.019,6.28.65,10.759-3.017C37.126,272.271,38.853,261.058,38.872,260.943Z" transform="translate(-21.17 -94.683)" fill="#005b4e"/>
    <path id="Path_25" data-name="Path 25" d="M78.24,66.575c-2,.586-19.977,6.31-36.153,26.708C32.725,105.09,25.9,119.448,21.8,135.959c-3.657,14.722-5.131,31.217-4.425,49.219a12.126,12.126,0,0,0,3.274,7.8l5.919,6.328a4.761,4.761,0,0,0,7.373-.51l5.033-7.151a12.2,12.2,0,0,0,2.2-7.489c-1.186-31.435,5.151-57.084,18.633-74.855C71.566,93.8,84.514,89.569,85.059,89.4Z" transform="translate(-17.201 -24.322)" fill="#00665a"/>
    <g id="Group_1" data-name="Group 1" transform="translate(14.009 42.253)">
      <path id="Path_26" data-name="Path 26" d="M86.3,66.575c-2,.586-19.977,6.31-36.153,26.708-.123.155-8.2,15.773-10.2,33.445-2.275,20.171,1.261,39.206,9.192,54.107-.63-29.923,5.724-54.4,18.728-71.536C79.631,93.8,92.579,89.57,93.124,89.4Z" transform="translate(-39.274 -66.575)" fill="#00554b"/>
      <path id="Path_27" data-name="Path 27" d="M200.995,89.433l6.7-22.858c2,.586,19.977,6.31,36.153,26.708a84.861,84.861,0,0,1,10.2,33.445c1.564,20.239-1.261,39.206-9.192,54.107.63-29.923-5.724-54.4-18.728-71.536-11.758-15.5-24.706-19.729-25.251-19.9Z" transform="translate(-98.314 -66.575)" fill="#00554b"/>
    </g>
    <path id="Path_28" data-name="Path 28" d="M188,200.293V97.337a60.256,60.256,0,0,0-60.08-60.08h0a60.256,60.256,0,0,0-60.08,60.08V200.293a19.585,19.585,0,0,0,19.585,19.585h80.989A19.586,19.586,0,0,0,188,200.293Z" transform="translate(-35.7 -13.611)" fill="#00aa95"/>
    <g id="Group_2" data-name="Group 2" transform="translate(32.137 23.645)">
      <path id="Path_29" data-name="Path 29" d="M97.014,200.292V97.336A60.317,60.317,0,0,1,142.5,39.063a59.652,59.652,0,0,0-14.589-1.806h0a60.256,60.256,0,0,0-60.08,60.08V200.292a19.585,19.585,0,0,0,19.585,19.585H116.6A19.585,19.585,0,0,1,97.014,200.292Z" transform="translate(-67.837 -37.256)" fill="#087"/>
      <path id="Path_30" data-name="Path 30" d="M67.837,192.943V257.17a19.585,19.585,0,0,0,19.585,19.585h80.989A19.585,19.585,0,0,0,188,257.17V192.943Z" transform="translate(-67.837 -94.134)" fill="#087"/>
    </g>
    <path id="Path_31" data-name="Path 31" d="M67.837,257.17a19.585,19.585,0,0,0,19.585,19.585H116.6A19.585,19.585,0,0,1,97.014,257.17V192.944H67.837Z" transform="translate(-35.7 -70.489)" fill="#00665a"/>
    <path id="Path_32" data-name="Path 32" d="M169.932,263.91H109.058a9.528,9.528,0,0,1-9.528-9.528V225.268a9.528,9.528,0,0,1,9.528-9.528h60.874a9.528,9.528,0,0,1,9.528,9.528v29.113A9.529,9.529,0,0,1,169.932,263.91Z" transform="translate(-47.278 -78.817)" fill="#ffe477"/>
    <g id="Group_3" data-name="Group 3" transform="translate(52.252 136.923)">
      <path id="Path_33" data-name="Path 33" d="M120.336,254.383V225.269a9.528,9.528,0,0,1,9.528-9.528H109.058a9.528,9.528,0,0,0-9.528,9.528v29.113a9.528,9.528,0,0,0,9.528,9.528h20.806A9.528,9.528,0,0,1,120.336,254.383Z" transform="translate(-99.53 -215.741)" fill="#ffd422"/>
      <path id="Path_34" data-name="Path 34" d="M169.932,215.74H109.058a9.528,9.528,0,0,0-9.528,9.528V234.8h79.93v-9.528A9.528,9.528,0,0,0,169.932,215.74Z" transform="translate(-99.53 -215.74)" fill="#ffd422"/>
    </g>
    <path id="Path_35" data-name="Path 35" d="M129.864,215.74H109.058a9.528,9.528,0,0,0-9.528,9.528V234.8h20.806v-9.528A9.528,9.528,0,0,1,129.864,215.74Z" transform="translate(-47.278 -78.817)" fill="#eebf00"/>
    <path id="Path_36" data-name="Path 36" d="M173.561,251.992H116.922a3.113,3.113,0,0,1,0-6.225h56.639a3.113,3.113,0,1,1,0,6.225Z" transform="translate(-52.495 -89.787)" fill="#006d5d"/>
    <path id="Path_37" data-name="Path 37" d="M67.837,288.422v3.63a19.585,19.585,0,0,0,19.585,19.585h7.334C88.682,292.637,75.695,288.859,67.837,288.422Z" transform="translate(-35.7 -105.37)" fill="#eebf00"/>
    <path id="Path_38" data-name="Path 38" d="M241.668,288.422v3.63a19.585,19.585,0,0,1-19.585,19.585h-7.334C220.823,292.637,233.81,288.859,241.668,288.422Z" transform="translate(-89.372 -105.37)" fill="#ffd422"/>
    <path id="Path_39" data-name="Path 39" d="M127.916,66.946c-29.658,0-46.137,14.875-54.738,27.352a73.206,73.206,0,0,0-5.11,8.644c-.151,1.728-.233,3.476-.233,5.241v13.864A69.123,69.123,0,0,1,78.3,97.831c11.279-16.363,27.971-24.66,49.612-24.66,21.552,0,38.2,8.233,49.48,24.469A69.528,69.528,0,0,1,188,122.053V108.182c0-1.765-.082-3.513-.233-5.241a73.24,73.24,0,0,0-5.11-8.644C174.053,81.819,157.575,66.946,127.916,66.946Z" transform="translate(-35.699 -24.457)" fill="#006d5d"/>
    <path id="Path_40" data-name="Path 40" d="M73.179,95.209a73.206,73.206,0,0,0-5.11,8.644c-.151,1.728-.233,3.476-.233,5.241v13.864A69.123,69.123,0,0,1,78.3,98.742,54.289,54.289,0,0,1,106.1,77.433a60.625,60.625,0,0,1,5.975-8.009A61.389,61.389,0,0,0,73.179,95.209Z" transform="translate(-35.699 -25.363)" fill="#00665a"/>
    <path id="Path_41" data-name="Path 41" d="M165.956,35.82a5.373,5.373,0,0,1-5.373-5.373V20.806a10.06,10.06,0,0,0-20.119,0v9.641a5.373,5.373,0,0,1-10.746,0V20.806a20.806,20.806,0,0,1,41.612,0v9.641A5.373,5.373,0,0,1,165.956,35.82Z" transform="translate(-58.307)" fill="#ffd422"/>
    <g id="Group_4" data-name="Group 4" transform="translate(71.412)">
      <path id="Path_42" data-name="Path 42" d="M178.95,36.633V26.991a10.06,10.06,0,0,0-12.541-9.749,10.077,10.077,0,0,1,7.578,9.749v9.641a5.369,5.369,0,0,0,7.854,4.763A5.37,5.37,0,0,1,178.95,36.633Z" transform="translate(-143.123 -6.186)" fill="#eebf00"/>
      <path id="Path_43" data-name="Path 43" d="M134.681,30.447V20.806A20.833,20.833,0,0,1,153.006.153a20.769,20.769,0,0,0-23.287,20.652v9.641a5.369,5.369,0,0,0,7.854,4.763A5.369,5.369,0,0,1,134.681,30.447Z" transform="translate(-129.719)" fill="#eebf00"/>
    </g>
  </g>
</svg>
